<svg width="24" height="25" viewBox="0 0 24 25" fill="none" xmlns="http://www.w3.org/2000/svg">
<g id="bank-note-01">
<path id="Icon" d="M6 11.5V15.5M18 9.5V13.5M17 4.5C19.4487 4.5 20.7731 4.87476 21.4321 5.16544C21.5199 5.20415 21.5638 5.22351 21.6904 5.34437C21.7663 5.41682 21.9049 5.62939 21.9405 5.72809C22 5.89274 22 5.98274 22 6.16274V16.9111C22 17.8199 22 18.2743 21.8637 18.5079C21.7251 18.7454 21.5914 18.8559 21.3319 18.9472C21.0769 19.0369 20.562 18.938 19.5322 18.7401C18.8114 18.6017 17.9565 18.5 17 18.5C14 18.5 11 20.5 7 20.5C4.55129 20.5 3.22687 20.1252 2.56788 19.8346C2.48012 19.7958 2.43624 19.7765 2.3096 19.6556C2.23369 19.5832 2.09512 19.3706 2.05947 19.2719C2 19.1073 2 19.0173 2 18.8373L2 8.08885C2 7.18009 2 6.7257 2.13628 6.49214C2.2749 6.25456 2.40859 6.14412 2.66806 6.05281C2.92314 5.96305 3.43803 6.06198 4.46783 6.25985C5.18862 6.39834 6.04348 6.5 7 6.5C10 6.5 13 4.5 17 4.5ZM14.5 12.5C14.5 13.8807 13.3807 15 12 15C10.6193 15 9.5 13.8807 9.5 12.5C9.5 11.1193 10.6193 10 12 10C13.3807 10 14.5 11.1193 14.5 12.5Z" stroke="#4F4F4F" stroke-width="1.35273" stroke-linecap="round" stroke-linejoin="round"/>
</g>
</svg>
