<svg width="20" height="20" viewBox="0 0 20 20" fill="none" xmlns="http://www.w3.org/2000/svg">
<g id="building-07">
<path id="Icon" d="M6.24935 9.16716H3.83268C3.36597 9.16716 3.13262 9.16716 2.95436 9.25798C2.79756 9.33788 2.67007 9.46536 2.59018 9.62216C2.49935 9.80042 2.49935 10.0338 2.49935 10.5005V17.5005M13.7493 9.16716H16.166C16.6327 9.16716 16.8661 9.16716 17.0443 9.25798C17.2011 9.33788 17.3286 9.46536 17.4085 9.62216C17.4993 9.80042 17.4993 10.0338 17.4993 10.5005V17.5005M13.7493 17.5005V5.16716C13.7493 4.23373 13.7493 3.76702 13.5677 3.4105C13.4079 3.0969 13.1529 2.84193 12.8393 2.68214C12.4828 2.50049 12.0161 2.50049 11.0827 2.50049H8.91602C7.98259 2.50049 7.51588 2.50049 7.15937 2.68214C6.84576 2.84193 6.59079 3.0969 6.43101 3.4105C6.24935 3.76702 6.24935 4.23373 6.24935 5.16715V17.5005M18.3327 17.5005H1.66602M9.16602 5.83382H10.8327M9.16602 9.16716H10.8327M9.16602 12.5005H10.8327" stroke="#3D3D3D" stroke-width="1.35" stroke-linecap="round" stroke-linejoin="round"/>
</g>
</svg>
