<svg width="24" height="25" viewBox="0 0 24 25" fill="none" xmlns="http://www.w3.org/2000/svg">
<g id="calendar-minus-02">
<path id="Icon" d="M15 18.4995H21M21 11.9995V9.29951C21 7.61935 21 6.77928 20.673 6.13754C20.3854 5.57305 19.9265 5.11411 19.362 4.82649C18.7202 4.49951 17.8802 4.49951 16.2 4.49951H7.8C6.11984 4.49951 5.27976 4.49951 4.63803 4.82649C4.07354 5.11411 3.6146 5.57305 3.32698 6.13754C3 6.77928 3 7.61935 3 9.29951V17.6995C3 19.3797 3 20.2197 3.32698 20.8615C3.6146 21.426 4.07354 21.8849 4.63803 22.1725C5.27976 22.4995 6.11984 22.4995 7.8 22.4995H12.5M21 10.4995H3M16 2.49951V6.49951M8 2.49951V6.49951" stroke="#4F4F4F" stroke-width="1.35273" stroke-linecap="round" stroke-linejoin="round"/>
</g>
</svg>
