<svg width="24" height="25" viewBox="0 0 24 25" fill="none" xmlns="http://www.w3.org/2000/svg">
<g id="container">
<path id="Icon" d="M20.5 7.77783L12 12.5001M12 12.5001L3.49997 7.77783M12 12.5001L12 22.0001M21 16.5586V8.44153C21 8.09889 21 7.92757 20.9495 7.77477C20.9049 7.63959 20.8318 7.51551 20.7354 7.41082C20.6263 7.29248 20.4766 7.20928 20.177 7.04288L12.777 2.93177C12.4934 2.77421 12.3516 2.69543 12.2015 2.66454C12.0685 2.63721 11.9315 2.63721 11.7986 2.66454C11.6484 2.69543 11.5066 2.77421 11.223 2.93177L3.82297 7.04288C3.52345 7.20928 3.37369 7.29248 3.26463 7.41082C3.16816 7.51551 3.09515 7.63959 3.05048 7.77477C3 7.92757 3 8.09889 3 8.44153V16.5586C3 16.9013 3 17.0726 3.05048 17.2254C3.09515 17.3606 3.16816 17.4847 3.26463 17.5893C3.37369 17.7077 3.52345 17.7909 3.82297 17.9573L11.223 22.0684C11.5066 22.226 11.6484 22.3047 11.7986 22.3356C11.9315 22.363 12.0685 22.363 12.2015 22.3356C12.3516 22.3047 12.4934 22.226 12.777 22.0684L20.177 17.9573C20.4766 17.7909 20.6263 17.7077 20.7354 17.5893C20.8318 17.4847 20.9049 17.3606 20.9495 17.2254C21 17.0726 21 16.9013 21 16.5586Z" stroke="#4F4F4F" stroke-width="1.35273" stroke-linecap="round" stroke-linejoin="round"/>
</g>
</svg>
