<svg class="dir"  width="20" height="20" viewBox="0 0 20 20" fill="none" xmlns="http://www.w3.org/2000/svg">
<g id="fast-forward">
<g id="Icon">
<path d="M10.8346 13.6973C10.8346 14.639 10.8346 15.1098 11.0249 15.3407C11.1901 15.5412 11.4395 15.6532 11.6991 15.6435C11.998 15.6323 12.35 15.3195 13.0538 14.6939L17.2135 10.9963C17.6013 10.6517 17.7951 10.4793 17.8666 10.2758C17.9293 10.0971 17.9293 9.9024 17.8666 9.7237C17.7951 9.52021 17.6013 9.34788 17.2135 9.00322L13.0538 5.30568C12.35 4.68005 11.998 4.36724 11.6991 4.35605C11.4395 4.34633 11.1901 4.45831 11.0249 4.65885C10.8346 4.88969 10.8346 5.36053 10.8346 6.30223V13.6973Z" stroke="white" stroke-width="1.5" stroke-linecap="round" stroke-linejoin="round"/>
<path d="M1.66797 13.6973C1.66797 14.639 1.66797 15.1098 1.85819 15.3407C2.02345 15.5412 2.27279 15.6532 2.53247 15.6435C2.83138 15.6323 3.18329 15.3195 3.88712 14.6939L8.04685 10.9963C8.4346 10.6517 8.62847 10.4793 8.69991 10.2758C8.76266 10.0971 8.76266 9.9024 8.69991 9.7237C8.62847 9.52021 8.4346 9.34788 8.04685 9.00322L3.88712 5.30568C3.18329 4.68005 2.83138 4.36724 2.53247 4.35605C2.27279 4.34633 2.02345 4.45831 1.85819 4.65885C1.66797 4.88969 1.66797 5.36053 1.66797 6.30223V13.6973Z" stroke="white" stroke-width="1.5" stroke-linecap="round" stroke-linejoin="round"/>
</g>
</g>
</svg>
