<svg width="20" height="20" viewBox="0 0 20 20" fill="none" xmlns="http://www.w3.org/2000/svg">
<g id="file-05" clip-path="url(#clip0_5999_31677)">
<path id="Icon" d="M11.6673 1.8916V5.33372C11.6673 5.80043 11.6673 6.03378 11.7581 6.21204C11.838 6.36885 11.9655 6.49633 12.1223 6.57622C12.3006 6.66705 12.5339 6.66705 13.0007 6.66705H16.4428M11.6673 14.167H6.66732M13.334 10.8337H6.66732M16.6673 8.32385V14.3337C16.6673 15.7338 16.6673 16.4339 16.3948 16.9686C16.1552 17.439 15.7727 17.8215 15.3023 18.0612C14.7675 18.3337 14.0674 18.3337 12.6673 18.3337H7.33398C5.93385 18.3337 5.23379 18.3337 4.69901 18.0612C4.2286 17.8215 3.84615 17.439 3.60647 16.9686C3.33398 16.4339 3.33398 15.7338 3.33398 14.3337V5.66699C3.33398 4.26686 3.33398 3.5668 3.60647 3.03202C3.84615 2.56161 4.2286 2.17916 4.69901 1.93948C5.23379 1.66699 5.93385 1.66699 7.33398 1.66699H10.0105C10.6219 1.66699 10.9277 1.66699 11.2154 1.73607C11.4705 1.79731 11.7143 1.89832 11.938 2.03539C12.1903 2.19 12.4065 2.40619 12.8389 2.83857L15.4957 5.49542C15.9281 5.9278 16.1443 6.14399 16.2989 6.39628C16.436 6.61996 16.537 6.86382 16.5982 7.11891C16.6673 7.40663 16.6673 7.71237 16.6673 8.32385Z" stroke="#3D3D3D" stroke-width="1.68" stroke-linecap="round" stroke-linejoin="round"/>
</g>
<defs>
<clipPath id="clip0_5999_31677">
<rect width="20" height="20" fill="white" transform="translate(0 0.000488281)"/>
</clipPath>
</defs>
</svg>
