<svg width="25" height="25" viewBox="0 0 25 25" fill="none" xmlns="http://www.w3.org/2000/svg">
<g id="globe-05">
<path id="Icon" d="M15.5 2.95731C14.553 2.65987 13.5452 2.49951 12.5 2.49951C6.97715 2.49951 2.5 6.97666 2.5 12.4995C2.5 18.0224 6.97715 22.4995 12.5 22.4995C18.0228 22.4995 22.5 18.0224 22.5 12.4995C22.5 10.7842 22.0681 9.16973 21.3071 7.75896M17.5 6.24951H17.505M11.0001 22.3878L11.0002 20.1844C11.0002 20.0651 11.0429 19.9497 11.1205 19.8591L13.6063 16.9589C13.8106 16.7206 13.7473 16.3551 13.4748 16.1994L10.6185 14.5672C10.5409 14.5229 10.4766 14.4586 10.4323 14.3809L8.57046 11.1181C8.47356 10.9483 8.28657 10.8506 8.09183 10.8679L2.56418 11.3603M21.5 6.49951C21.5 8.70865 19.5 10.4995 17.5 12.4995C15.5 10.4995 13.5 8.70865 13.5 6.49951C13.5 4.29037 15.2909 2.49951 17.5 2.49951C19.7091 2.49951 21.5 4.29037 21.5 6.49951ZM17.75 6.24951C17.75 6.38758 17.6381 6.49951 17.5 6.49951C17.3619 6.49951 17.25 6.38758 17.25 6.24951C17.25 6.11144 17.3619 5.99951 17.5 5.99951C17.6381 5.99951 17.75 6.11144 17.75 6.24951Z" stroke="#4F4F4F" stroke-width="1.35273" stroke-linecap="round" stroke-linejoin="round"/>
</g>
</svg>
