<svg width="24" height="25" viewBox="0 0 24 25" fill="none" xmlns="http://www.w3.org/2000/svg">
<g id="hourglass-01">
<path id="Icon" d="M12 12.4995L7.72711 8.93877C7.09226 8.40973 6.77484 8.14521 6.54664 7.82095C6.34445 7.53364 6.19429 7.21305 6.10301 6.87379C6 6.4909 6 6.0777 6 5.25131V2.49951M12 12.4995L16.2729 8.93877C16.9077 8.40973 17.2252 8.14521 17.4534 7.82095C17.6556 7.53364 17.8057 7.21305 17.897 6.87379C18 6.4909 18 6.0777 18 5.25131V2.49951M12 12.4995L7.72712 16.0602C7.09226 16.5893 6.77484 16.8538 6.54664 17.1781C6.34445 17.4654 6.19429 17.786 6.10301 18.1252C6 18.5081 6 18.9213 6 19.7477V22.4995M12 12.4995L16.2729 16.0603C16.9077 16.5893 17.2252 16.8538 17.4534 17.1781C17.6556 17.4654 17.8057 17.786 17.897 18.1252C18 18.5081 18 18.9213 18 19.7477V22.4995M4 2.49951H20M4 22.4995H20" stroke="#15B377" stroke-width="1.35273" stroke-linecap="round" stroke-linejoin="round"/>
</g>
</svg>
