<svg width="16" height="16" viewBox="0 0 16 16" fill="none" xmlns="http://www.w3.org/2000/svg">
  <path d="M7.33337 10H5.33337C4.09086 10 3.46961 10 2.97955 10.203C2.32614 10.4736 1.80701 10.9928 1.53636 11.6462C1.33337 12.1362 1.33337 12.7575 1.33337 14M10.3334 2.19384C11.3107 2.58943 12 3.54754 12 4.66667M7.99996 14.3333L9.35001 14.0633C9.46773 14.0398 9.52658 14.028 9.58147 14.0065C9.63018 13.9874 9.67648 13.9626 9.7194 13.9327C9.76775 13.899 9.81019 13.8565 9.89508 13.7716L14.3334 9.33337C14.7016 8.96516 14.7016 8.36818 14.3334 7.99998C13.9652 7.6318 13.3682 7.6318 13 8L8.56172 12.4383C8.47685 12.5232 8.43441 12.5656 8.40069 12.614C8.37075 12.6569 8.34598 12.7032 8.32687 12.7519C8.30535 12.8068 8.29357 12.8656 8.27003 12.9833L7.99996 14.3333ZM9.00004 4.66667C9.00004 6.13943 7.80613 7.33333 6.33337 7.33333C4.86061 7.33333 3.66671 6.13943 3.66671 4.66667C3.66671 3.19391 4.86061 2 6.33337 2C7.80613 2 9.00004 3.19391 9.00004 4.66667Z" stroke="#15B377" stroke-width="1.5" stroke-linecap="round" stroke-linejoin="round"/>
</svg>
