<svg width="24" height="24" viewBox="0 0 24 24" fill="none" xmlns="http://www.w3.org/2000/svg">
<rect width="24" height="24" rx="12" fill="white"/>
<rect x="0.5" y="0.5" width="23" height="23" rx="11.5" stroke="#121212"/>
<path d="M16.8001 17.4C16.8001 16.5626 16.8001 16.144 16.6967 15.8033C16.464 15.0362 15.8638 14.436 15.0968 14.2033C14.7561 14.1 14.3374 14.1 13.5001 14.1H10.5001C9.66274 14.1 9.24407 14.1 8.90339 14.2033C8.13635 14.436 7.5361 15.0362 7.30342 15.8033C7.20007 16.144 7.20007 16.5626 7.20007 17.4M14.7001 9.29998C14.7001 10.7911 13.4912 12 12.0001 12C10.5089 12 9.30007 10.7911 9.30007 9.29998C9.30007 7.80881 10.5089 6.59998 12.0001 6.59998C13.4912 6.59998 14.7001 7.80881 14.7001 9.29998Z" stroke="black" stroke-linecap="round" stroke-linejoin="round"/>
</svg>

