<svg width="21" height="21" viewBox="0 0 21 21" fill="none" xmlns="http://www.w3.org/2000/svg">
<path fill-rule="evenodd" clip-rule="evenodd" d="M4.79374 2.90066C7.50542 -1.07637 13.693 -0.963786 16.2079 3.23842L19.4832 8.71166C22.0673 13.0291 18.8364 18.4258 13.6682 18.4258H7.11703C1.94835 18.4258 -1.28208 13.0291 1.30199 8.71171L4.77949 2.90066H4.79374ZM15.5 3.79785C13.5 0.297852 8 0.297852 5.5 3.29785L5 3.91375L2 9.29785C-0.5 13.2979 3.02639 17.4241 7.11703 17.4241L13.6682 17.2979C17.7584 17.2979 21 13.2979 19 9.29785L15.5 3.79785Z" fill="white"/>
<path d="M8 11.358L8.50016 10.8225C8.94926 11.2389 9.68444 11.63 10.6442 11.63C11.8592 11.63 12.2471 11.086 12.2471 10.6524C12.2471 9.1903 8.21408 9.9978 8.21408 7.97483C8.21408 7.03979 9.21472 6.40234 10.5522 6.40234C11.5937 6.40234 12.4003 6.69149 12.9718 7.19294L12.4612 7.71156C11.9506 7.24391 11.236 7.0316 10.4907 7.0316C9.67397 7.0316 9.09198 7.39706 9.09198 7.93258C9.09198 9.20773 13.125 8.47654 13.125 10.5933C13.125 11.4179 12.451 12.2595 10.6134 12.2595C9.42913 12.2595 8.56169 11.885 8 11.358Z" fill="white"/>
<path d="M18.6471 8.77082L15.1213 7.0235C14.9621 6.94458 14.959 6.74245 15.1157 6.65962L18.5855 4.8278C18.7425 4.74497 18.9416 4.84362 18.9441 5.00536L19 8.58451C19.0025 8.74626 18.8065 8.84974 18.6471 8.77082Z" fill="white"/>
<path d="M11.6471 19.7708L8.12133 18.0235C7.96211 17.9446 7.95896 17.7424 8.11566 17.6596L11.5855 15.8278C11.7425 15.745 11.9416 15.8436 11.9441 16.0054L12 19.5845C12.0025 19.7463 11.8065 19.8497 11.6471 19.7708Z" fill="white"/>
<path d="M3.64709 9.37532L0.12133 7.62799C-0.0378914 7.54907 -0.0410427 7.34694 0.115658 7.26412L3.58554 5.43229C3.74245 5.34946 3.94158 5.44811 3.9441 5.60985L3.99998 9.18901C4.0025 9.35075 3.80652 9.45423 3.64709 9.37532Z" fill="white"/>
</svg>
