<svg width="20" height="21" viewBox="0 0 20 21" fill="none" xmlns="http://www.w3.org/2000/svg">
<path d="M16.25 14.1525H15.4166V8.31917H16.2363M16.25 14.1525C17.1705 14.1525 17.9166 13.4063 17.9166 12.4858V9.98584C17.9166 9.06537 17.1705 8.31917 16.25 8.31917H16.2363M16.25 14.1525C16.25 16.4537 14.3845 18.3192 12.0833 18.3192H10.4166C9.95641 18.3192 9.58331 17.9461 9.58331 17.4858V16.6525M16.2363 8.31917C16.0219 5.06166 13.3117 2.48584 9.99998 2.48584C6.68821 2.48584 3.97806 5.06166 3.76365 8.31917M3.76365 8.31917H4.58331V14.1525H3.74998C2.82951 14.1525 2.08331 13.4063 2.08331 12.4858V9.98584C2.08331 9.06537 2.82951 8.31917 3.74998 8.31917H3.76365Z" stroke-linecap="round" stroke-linejoin="round"/>
</svg>
