<svg width="24" height="24" viewBox="0 0 24 24" fill="none" xmlns="http://www.w3.org/2000/svg">
<path d="M14.0625 3.24426V6.98757C14.0625 7.49511 14.0625 7.74889 14.1613 7.94274C14.2482 8.11327 14.3868 8.2519 14.5573 8.33879C14.7512 8.43756 15.005 8.43756 15.5125 8.43756H19.2558M15.875 12.9688H8.625M15.875 16.5938H8.625M10.4375 9.34375H8.625M14.0625 3H9.35C7.82736 3 7.06604 3 6.48446 3.29633C5.9729 3.55698 5.55698 3.9729 5.29633 4.48446C5 5.06604 5 5.82736 5 7.35V16.775C5 18.2976 5 19.059 5.29633 19.6405C5.55698 20.1521 5.9729 20.568 6.48446 20.8287C7.06604 21.125 7.82736 21.125 9.35 21.125H15.15C16.6726 21.125 17.434 21.125 18.0155 20.8287C18.5271 20.568 18.943 20.1521 19.2037 19.6405C19.5 19.059 19.5 18.2976 19.5 16.775V8.4375L14.0625 3Z"  stroke-width="1.5" stroke-linecap="round" stroke-linejoin="round"/>
</svg>

