<svg width="24" height="24" viewBox="0 0 24 24" fill="none" xmlns="http://www.w3.org/2000/svg">
<path d="M5.01936 10.2234C4.7391 10.3055 4.46295 10.3435 4.19091 10.3371C3.9202 10.3358 3.66656 10.289 3.42999 10.1969C3.19833 10.1034 2.99737 9.96583 2.8271 9.7843C2.66307 9.60633 2.54448 9.38004 2.47134 9.10543C2.43942 8.98561 2.41534 8.85541 2.3991 8.71483C2.38645 8.56783 2.38164 8.41045 2.38466 8.24269C2.39127 8.06851 2.40572 7.88394 2.42801 7.68901L3.01489 7.74299C3.00296 7.8972 2.99395 8.04249 2.98786 8.17884C2.98669 8.31375 2.9909 8.43902 3.00049 8.55462C3.015 8.66879 3.03555 8.7758 3.06215 8.87566C3.12997 9.13029 3.25354 9.32551 3.43284 9.46133C3.61706 9.59571 3.83356 9.67217 4.08234 9.69072C4.33738 9.71282 4.60256 9.6835 4.87791 9.60275C5.21225 9.50471 5.48121 9.38008 5.68478 9.22888C5.88835 9.07767 6.03723 8.91021 6.13141 8.72649C6.22693 8.54776 6.2778 8.3606 6.28401 8.165C6.29646 7.97295 6.27809 7.78455 6.22888 7.59982C6.16371 7.35517 6.05968 7.11385 5.91677 6.87586C5.77745 6.63143 5.62677 6.37418 5.46471 6.10412L6.01823 5.76417C6.12285 5.93803 6.20341 6.08127 6.25991 6.19389C6.32 6.30007 6.3674 6.38845 6.40209 6.45901C6.44038 6.52315 6.47601 6.57729 6.50897 6.62145C6.59764 6.7354 6.7031 6.8229 6.82538 6.88393C6.95124 6.93853 7.10262 6.96949 7.2795 6.97683C7.45997 6.97774 7.674 6.95534 7.92158 6.90966C8.16782 6.85898 8.45566 6.78533 8.78509 6.68873C9.04568 6.61231 9.27837 6.53061 9.48314 6.44365C9.69284 6.35524 9.87462 6.26156 10.0285 6.16261C10.181 6.05867 10.3039 5.95267 10.397 5.84461C10.4937 5.73012 10.5583 5.6143 10.5907 5.49714C10.6218 5.37499 10.6207 5.25151 10.5875 5.12669C10.5582 5.01684 10.5026 4.91743 10.4206 4.82844C10.3372 4.73446 10.229 4.66661 10.096 4.62488C9.96295 4.58315 9.80301 4.58968 9.61617 4.64447C9.38016 4.71368 9.16077 4.8453 8.95801 5.03933C8.76016 5.23192 8.5808 5.45408 8.41991 5.7058C8.2626 5.9511 8.12876 6.19489 8.01837 6.43719C7.90798 6.67949 7.8229 6.88746 7.76313 7.06109L7.11549 7.22678C7.18389 6.98603 7.27241 6.7313 7.38107 6.4626C7.48973 6.19389 7.6158 5.93084 7.75928 5.67346C7.90276 5.41607 8.06385 5.17505 8.24255 4.9504C8.42125 4.72574 8.61351 4.5321 8.81934 4.36947C9.03008 4.2054 9.25592 4.08804 9.49684 4.01738C9.76727 3.93808 10.0137 3.92773 10.236 3.98633C10.4619 4.0385 10.6518 4.1443 10.8056 4.30375C10.9643 4.46175 11.0756 4.66058 11.1394 4.90024C11.1979 5.11992 11.2071 5.34331 11.1668 5.57042C11.1253 5.79253 11.0187 6.00948 10.8472 6.22127C10.6757 6.43305 10.4249 6.63579 10.0948 6.82947C9.7634 7.01816 9.3371 7.18893 8.81591 7.34177C8.44223 7.45135 8.11598 7.52011 7.83717 7.54804C7.56461 7.57953 7.33231 7.58306 7.14027 7.55863C6.95182 7.52777 6.80137 7.48038 6.68893 7.41647C6.58008 7.34611 6.50385 7.26889 6.46024 7.18479L6.86436 7.47806C6.90362 7.72492 6.91337 7.98044 6.89361 8.2446C6.87878 8.50732 6.80946 8.7645 6.68564 9.01611C6.56808 9.27128 6.37529 9.50276 6.10728 9.71054C5.83927 9.91832 5.47663 10.0893 5.01936 10.2234ZM9.07749 3.30872C8.97423 3.339 8.87642 3.33 8.78405 3.28173C8.69526 3.22703 8.63757 3.14975 8.61098 3.04989C8.58438 2.95004 8.59552 2.85257 8.64441 2.75749C8.69821 2.66097 8.77674 2.59757 8.88 2.56729C8.97834 2.53845 9.0719 2.55139 9.16068 2.60609C9.25438 2.65936 9.31453 2.73592 9.34113 2.83577C9.36773 2.93563 9.35413 3.03382 9.30032 3.13034C9.2501 3.22042 9.17583 3.27988 9.07749 3.30872Z" fill="black"/>
<path d="M15.4208 20.1139H14.623L16.9303 13.7686H17.7158L20.023 20.1139H19.2253L17.3476 14.7724H17.2985L15.4208 20.1139ZM15.7153 17.6352H18.9308V18.3168H15.7153V17.6352Z" fill="black"/>
<path fill-rule="evenodd" clip-rule="evenodd" d="M0 1.21177C0 0.54253 0.537259 0 1.2 0H12.24C12.9027 0 13.44 0.54253 13.44 1.21178V8.81158C13.44 9.07928 13.2251 9.29629 12.96 9.29629C12.6949 9.29629 12.48 9.07928 12.48 8.81158V1.21178C12.48 1.07793 12.3725 0.96942 12.24 0.96942H1.2C1.06745 0.96942 0.96 1.07793 0.96 1.21177V12.8526C0.96 12.9865 1.06745 13.095 1.2 13.095H9.55637C9.82146 13.095 10.0364 13.312 10.0364 13.5797C10.0364 13.8474 9.82146 14.0644 9.55637 14.0644H1.2C0.537258 14.0644 0 13.5219 0 12.8526V1.21177Z" fill="black"/>
<path fill-rule="evenodd" clip-rule="evenodd" d="M10.5596 11.1473C10.5596 10.4781 11.0968 9.93555 11.7596 9.93555H17.7596C18.0247 9.93555 18.2396 10.1526 18.2396 10.4203C18.2396 10.688 18.0247 10.905 17.7596 10.905H11.7596C11.627 10.905 11.5196 11.0135 11.5196 11.1473V22.7882C11.5196 22.922 11.627 23.0305 11.7596 23.0305H22.7996C22.9321 23.0305 23.0396 22.922 23.0396 22.7882L23.0396 11.1473C23.0396 11.0135 22.9321 10.905 22.7996 10.905H19.6796C19.4145 10.905 19.1996 10.688 19.1996 10.4203C19.1996 10.1526 19.4145 9.93555 19.6796 9.93555H22.7996C23.4623 9.93555 23.9996 10.4781 23.9996 11.1473L23.9996 22.7882C23.9996 23.4574 23.4623 23.9999 22.7996 23.9999H11.7596C11.0968 23.9999 10.5596 23.4574 10.5596 22.7882V11.1473Z" fill="black"/>
<path fill-rule="evenodd" clip-rule="evenodd" d="M20.6404 8.78223C20.9055 8.78223 21.1204 8.56521 21.1204 8.29752L21.1204 4.89575C21.1204 4.49587 21.1204 4.15432 21.0877 3.87381C21.0526 3.57329 20.9757 3.29603 20.7916 3.04326C20.5154 2.66405 20.0966 2.3827 19.6208 2.21309C19.3277 2.10865 19.0093 2.0638 18.6302 2.04213C18.2564 2.02077 17.7915 2.02077 17.1993 2.02077H16.168L16.6346 1.61281C16.835 1.43758 16.8568 1.13147 16.6833 0.92909C16.5097 0.726716 16.2066 0.704713 16.0062 0.879945L14.5662 2.13905C14.4609 2.23112 14.4004 2.36483 14.4004 2.50548C14.4004 2.64612 14.4609 2.77984 14.5662 2.87191L16.0062 4.13107C16.2066 4.3063 16.5097 4.28431 16.6833 4.08194C16.8568 3.87956 16.835 3.57345 16.6346 3.39822L16.168 2.99019H17.1844C17.7947 2.99019 18.2325 2.99037 18.576 3.01C18.9172 3.02951 19.1322 3.06699 19.3013 3.12724C19.6382 3.24734 19.8804 3.42828 20.0183 3.61767C20.0696 3.6881 20.1105 3.78399 20.1343 3.98737C20.1596 4.20442 20.1604 4.48838 20.1604 4.92296V8.29752C20.1604 8.56521 20.3753 8.78223 20.6404 8.78223Z" fill="black"/>
<path fill-rule="evenodd" clip-rule="evenodd" d="M3.35961 14.874C3.09451 14.874 2.87961 15.091 2.87961 15.3587L2.87961 18.7605C2.87959 19.1604 2.87958 19.5019 2.91234 19.7824C2.94744 20.083 3.02425 20.3602 3.20837 20.613C3.48459 20.9922 3.90336 21.2736 4.37923 21.4432C4.67225 21.5476 4.99071 21.5925 5.3698 21.6141C5.74358 21.6355 6.20846 21.6355 6.8007 21.6355H7.83198L7.36541 22.0434C7.165 22.2187 7.14321 22.5248 7.31674 22.7272C7.49027 22.9295 7.7934 22.9515 7.99381 22.7763L9.43381 21.5172C9.53911 21.4251 9.59961 21.2914 9.59961 21.1508C9.59961 21.0101 9.53911 20.8764 9.43382 20.7843L7.99382 19.5252C7.79342 19.3499 7.49028 19.3719 7.31674 19.5743C7.14321 19.7767 7.16499 20.0828 7.3654 20.258L7.83202 20.6661H6.81561C6.20525 20.6661 5.76751 20.6659 5.42405 20.6462C5.08277 20.6267 4.86777 20.5893 4.69875 20.529C4.36176 20.4089 4.11965 20.228 3.9817 20.0386C3.9304 19.9682 3.88949 19.8723 3.86573 19.6689C3.84038 19.4518 3.83961 19.1679 3.83961 18.7333V15.3587C3.83961 15.091 3.62471 14.874 3.35961 14.874Z" fill="black"/>
</svg>

