<svg width="26" height="26" viewBox="0 0 26 26" fill="none" xmlns="http://www.w3.org/2000/svg">
<path d="M5.82391 11.1815C5.53093 11.2626 5.24178 11.2984 4.95646 11.2888C4.67259 11.2844 4.40612 11.2336 4.15706 11.1366C3.91315 11.0381 3.70093 10.8948 3.52042 10.7068C3.34651 10.5226 3.21971 10.2893 3.14004 10.007C3.10528 9.88376 3.07862 9.75003 3.06007 9.60575C3.04521 9.45492 3.03846 9.29354 3.03982 9.12162C3.04487 8.94314 3.05802 8.75411 3.07929 8.55455L3.69525 8.61647C3.68441 8.77442 3.67653 8.92324 3.67163 9.06295C3.67186 9.20123 3.67763 9.32968 3.68894 9.44829C3.70538 9.56548 3.72809 9.6754 3.75706 9.77806C3.83094 10.0398 3.96261 10.2413 4.15209 10.3826C4.34671 10.5224 4.57456 10.6032 4.83563 10.625C5.10328 10.6505 5.38103 10.6235 5.66888 10.5438C6.0184 10.4471 6.29907 10.3223 6.51089 10.1696C6.72271 10.0169 6.87701 9.84693 6.97378 9.65967C7.072 9.47753 7.12331 9.28625 7.12771 9.08582C7.13869 8.8891 7.11738 8.69578 7.06379 8.50586C6.99281 8.25435 6.88111 8.00581 6.72869 7.76024C6.57995 7.50812 6.41917 7.24273 6.24632 6.96408L6.82304 6.62183C6.93462 6.80123 7.02065 6.94897 7.08111 7.06504C7.14527 7.17456 7.19592 7.26569 7.23307 7.33841C7.27391 7.40458 7.31185 7.46048 7.3469 7.50612C7.4411 7.62393 7.55264 7.7148 7.68151 7.77873C7.81408 7.83611 7.97314 7.86956 8.1587 7.87907C8.34794 7.88203 8.57212 7.86148 8.83123 7.81743C9.08888 7.76825 9.3899 7.696 9.73429 7.60068C10.0067 7.52527 10.2498 7.44415 10.4636 7.35731C10.6825 7.26904 10.8721 7.17506 11.0324 7.07536C11.1912 6.97052 11.3189 6.86325 11.4154 6.75353C11.5156 6.63726 11.582 6.51926 11.6147 6.39953C11.646 6.27467 11.6435 6.14808 11.6073 6.01976C11.5754 5.90683 11.516 5.8043 11.4291 5.71216C11.3406 5.61489 11.2265 5.54412 11.0865 5.49985C10.9466 5.45558 10.7789 5.46047 10.5836 5.51454C10.3369 5.58283 10.1083 5.71528 9.89776 5.91189C9.69239 6.10708 9.50671 6.33279 9.34073 6.58901C9.17845 6.83869 9.04074 7.08709 8.92761 7.33422C8.81448 7.58135 8.72751 7.79357 8.66672 7.97088L7.98942 8.13344C8.05853 7.88743 8.14861 7.62731 8.25963 7.35309C8.37066 7.07887 8.50001 6.81065 8.64767 6.54843C8.79533 6.28621 8.96164 6.04096 9.14659 5.81268C9.33154 5.58441 9.53104 5.38808 9.7451 5.22368C9.96431 5.05787 10.1998 4.9401 10.4517 4.87039C10.7344 4.79214 10.9926 4.7843 11.2264 4.84687C11.4639 4.90288 11.6641 5.01348 11.8271 5.17865C11.9952 5.3424 12.1141 5.54746 12.1836 5.79384C12.2473 6.01968 12.2593 6.24878 12.2196 6.48113C12.1784 6.70834 12.0691 6.92953 11.8915 7.14469C11.7139 7.35985 11.4531 7.56485 11.1091 7.75968C10.7637 7.94937 10.3185 8.11962 9.77367 8.27043C9.38303 8.37856 9.04168 8.44537 8.74963 8.47087C8.46417 8.50008 8.22063 8.50108 8.019 8.47389C7.82106 8.44013 7.66279 8.38987 7.5442 8.32308C7.4293 8.24974 7.34853 8.16973 7.30189 8.08303L7.72882 8.38819C7.77265 8.64168 7.78564 8.90371 7.76778 9.17427C7.75507 9.44341 7.68516 9.70625 7.55806 9.96278C7.43755 10.223 7.2379 10.4581 6.95912 10.6681C6.68034 10.8781 6.30194 11.0492 5.82391 11.1815ZM10.0043 4.13925C9.89637 4.16913 9.79371 4.15881 9.69633 4.10829C9.60264 4.05121 9.54131 3.97135 9.51234 3.86869C9.48337 3.76603 9.494 3.66625 9.54424 3.56934C9.59961 3.47101 9.68127 3.4069 9.78921 3.37702C9.89201 3.34857 9.99026 3.36288 10.0839 3.41995C10.1828 3.47561 10.2467 3.55476 10.2756 3.65742C10.3046 3.76007 10.2914 3.86057 10.236 3.9589C10.1844 4.05068 10.1071 4.1108 10.0043 4.13925Z" fill="white"/>
<path d="M16.563 21.8896H15.7321L18.1355 15.3442H18.9537L21.3571 21.8896H20.5261L18.5701 16.3797H18.519L16.563 21.8896ZM16.8699 19.3328H20.2193V20.036H16.8699V19.3328Z" fill="white"/>
<path d="M10.4545 14.1062H1.75C1.33579 14.1062 1 13.7704 1 13.3562V1.98144C1 1.56723 1.33579 1.23145 1.75 1.23145H13.25C13.6642 1.23145 14 1.56723 14 1.98145V9.41826" stroke="white" stroke-width="1.2" stroke-linecap="round"/>
<path d="M19 12.126H12.75C12.3358 12.126 12 12.4618 12 12.876V24.2507C12 24.6649 12.3358 25.0007 12.75 25.0007H24.25C24.6642 25.0007 25 24.6649 25 24.2507L25 12.876C25 12.4618 24.6642 12.126 24.25 12.126H21" stroke="white" stroke-width="1.2" stroke-linecap="round"/>
<path d="M22 9.91406V6.59627C22 5.7643 22 5.34832 21.7548 5.03055C21.539 4.75104 21.1948 4.52378 20.7715 4.38136C20.2902 4.21945 19.6601 4.21945 18.4 4.21945H16M16 4.21945L17.5 5.45743M16 4.21945L17.5 2.98152" stroke="white" stroke-width="1.2" stroke-linecap="round" stroke-linejoin="round"/>
<path d="M4 15.8555V19.1733C4 20.0052 4 20.4212 4.24524 20.739C4.46095 21.0185 4.80516 21.2457 5.22852 21.3882C5.70982 21.5501 6.33988 21.5501 7.6 21.5501H10M10 21.5501L8.5 20.3121M10 21.5501L8.5 22.788" stroke="white" stroke-width="1.2" stroke-linecap="round" stroke-linejoin="round"/>
</svg>

