<svg width="20" height="20" viewBox="0 0 20 20" fill="none" xmlns="http://www.w3.org/2000/svg">
<path d="M11.6666 9.1665H6.66665M8.33331 12.4998H6.66665M13.3333 5.83317H6.66665M16.6666 5.6665V14.3332C16.6666 15.7333 16.6666 16.4334 16.3942 16.9681C16.1545 17.4386 15.772 17.821 15.3016 18.0607C14.7668 18.3332 14.0668 18.3332 12.6666 18.3332H7.33331C5.93318 18.3332 5.23312 18.3332 4.69834 18.0607C4.22793 17.821 3.84548 17.4386 3.6058 16.9681C3.33331 16.4334 3.33331 15.7333 3.33331 14.3332V5.6665C3.33331 4.26637 3.33331 3.56631 3.6058 3.03153C3.84548 2.56112 4.22793 2.17867 4.69834 1.93899C5.23312 1.6665 5.93318 1.6665 7.33331 1.6665H12.6666C14.0668 1.6665 14.7668 1.6665 15.3016 1.93899C15.772 2.17867 16.1545 2.56112 16.3942 3.03153C16.6666 3.56631 16.6666 4.26637 16.6666 5.6665Z" stroke-linecap="round" stroke-linejoin="round"/>
</svg>
