<svg width="20" height="20" viewBox="0 0 20 20" fill="none" xmlns="http://www.w3.org/2000/svg">
<path d="M7.50002 7.49984H7.50835M12.5 12.4998H12.5084M13.3334 6.6665L6.66669 13.3332M6.11149 3.18208C6.78136 3.12863 7.41728 2.86522 7.92874 2.42935C9.12229 1.41222 10.8778 1.41222 12.0713 2.42935C12.5828 2.86522 13.2187 3.12863 13.8885 3.18208C15.4517 3.30683 16.693 4.54812 16.8178 6.11131C16.8712 6.78117 17.1346 7.4171 17.5705 7.92856C18.5876 9.12211 18.5876 10.8776 17.5705 12.0711C17.1346 12.5826 16.8712 13.2185 16.8178 13.8884C16.693 15.4516 15.4517 16.6928 13.8885 16.8176C13.2187 16.871 12.5828 17.1345 12.0713 17.5703C10.8778 18.5875 9.12229 18.5875 7.92874 17.5703C7.41728 17.1345 6.78136 16.871 6.11149 16.8176C4.54831 16.6928 3.30701 15.4516 3.18227 13.8884C3.12881 13.2185 2.8654 12.5826 2.42954 12.0711C1.4124 10.8776 1.4124 9.12211 2.42954 7.92856C2.8654 7.4171 3.12881 6.78117 3.18227 6.11131C3.30701 4.54812 4.54831 3.30683 6.11149 3.18208ZM7.91669 7.49984C7.91669 7.72996 7.73014 7.9165 7.50002 7.9165C7.2699 7.9165 7.08335 7.72996 7.08335 7.49984C7.08335 7.26972 7.2699 7.08317 7.50002 7.08317C7.73014 7.08317 7.91669 7.26972 7.91669 7.49984ZM12.9167 12.4998C12.9167 12.73 12.7301 12.9165 12.5 12.9165C12.2699 12.9165 12.0834 12.73 12.0834 12.4998C12.0834 12.2697 12.2699 12.0832 12.5 12.0832C12.7301 12.0832 12.9167 12.2697 12.9167 12.4998Z" stroke-linecap="round" stroke-linejoin="round"/>
</svg>
