<svg width="20" height="21" viewBox="0 0 20 21" fill="none" xmlns="http://www.w3.org/2000/svg">
<g id="@, at">
<path id="Icon" d="M13.9474 17.312C12.8008 18.023 11.4484 18.4336 10 18.4336C5.85786 18.4336 2.5 15.0757 2.5 10.9336C2.5 6.79146 5.85786 3.43359 10 3.43359C14.1421 3.43359 17.5 6.79146 17.5 10.9336C17.5 12.5387 16.7023 14.1965 14.8417 14.0273C13.3111 13.8882 12.2094 12.495 12.4267 10.9735L12.8562 8.01693M12.3818 11.3232C12.1325 13.0969 10.6722 14.358 9.12016 14.1399C7.56812 13.9218 6.51203 12.307 6.76132 10.5333C7.0106 8.7595 8.47087 7.49841 10.0229 7.71653C11.575 7.93466 12.631 9.5494 12.3818 11.3232Z" stroke="#4F4F4F" stroke-width="1.35" stroke-linecap="square"/>
</g>
</svg>
