<svg width="28" height="28" viewBox="0 0 28 28" fill="none" xmlns="http://www.w3.org/2000/svg">
<g id="bank-note-01">
<path id="Icon" d="M7.00065 12.8346V17.5013M21.0007 10.5013V15.168M19.834 4.66797C22.6908 4.66797 24.236 5.10519 25.0048 5.44432C25.1072 5.48948 25.1584 5.51206 25.3061 5.65307C25.3947 5.73759 25.5563 5.98559 25.5979 6.10074C25.6673 6.29283 25.6673 6.39783 25.6673 6.60783V19.1476C25.6673 20.2079 25.6673 20.738 25.5083 21.0105C25.3466 21.2876 25.1906 21.4165 24.8879 21.523C24.5903 21.6277 23.9896 21.5123 22.7882 21.2815C21.9473 21.1199 20.9499 21.0013 19.834 21.0013C16.334 21.0013 12.834 23.3346 8.16732 23.3346C5.31049 23.3346 3.76533 22.8974 2.99651 22.5583C2.89413 22.5131 2.84293 22.4905 2.69518 22.3495C2.60662 22.265 2.44495 22.017 2.40337 21.9019C2.33398 21.7098 2.33398 21.6048 2.33398 21.3948L2.33398 8.85496C2.33398 7.79474 2.33398 7.26462 2.49298 6.99214C2.6547 6.71496 2.81067 6.5861 3.11339 6.47958C3.41098 6.37486 4.01169 6.49028 5.21312 6.72112C6.05404 6.8827 7.05138 7.0013 8.16732 7.0013C11.6673 7.0013 15.1673 4.66797 19.834 4.66797ZM16.9173 14.0013C16.9173 15.6121 15.6115 16.918 14.0007 16.918C12.3898 16.918 11.084 15.6121 11.084 14.0013C11.084 12.3905 12.3898 11.0846 14.0007 11.0846C15.6115 11.0846 16.9173 12.3905 16.9173 14.0013Z" stroke="#4F4F4F" stroke-width="2" stroke-linecap="round" stroke-linejoin="round"/>
</g>
</svg>
