<svg width="28" height="28" viewBox="0 0 28 28" fill="none" xmlns="http://www.w3.org/2000/svg">
<g id="bank-note-01">
<path id="Icon" d="M6.99967 12.8346V17.5013M20.9997 10.5013V15.168M19.833 4.66797C22.6898 4.66797 24.235 5.10519 25.0038 5.44432C25.1062 5.48948 25.1574 5.51206 25.3051 5.65307C25.3937 5.73759 25.5554 5.98559 25.597 6.10074C25.6663 6.29283 25.6663 6.39783 25.6663 6.60783V19.1476C25.6663 20.2079 25.6663 20.738 25.5074 21.0105C25.3456 21.2876 25.1897 21.4165 24.8869 21.523C24.5894 21.6277 23.9886 21.5123 22.7872 21.2815C21.9463 21.1199 20.9489 21.0013 19.833 21.0013C16.333 21.0013 12.833 23.3346 8.16634 23.3346C5.30952 23.3346 3.76435 22.8974 2.99554 22.5583C2.89315 22.5131 2.84196 22.4905 2.69421 22.3495C2.60564 22.265 2.44398 22.017 2.40239 21.9019C2.33301 21.7098 2.33301 21.6048 2.33301 21.3948L2.33301 8.85496C2.33301 7.79474 2.33301 7.26462 2.492 6.99214C2.65373 6.71496 2.8097 6.5861 3.11241 6.47958C3.41 6.37486 4.01071 6.49028 5.21214 6.72112C6.05306 6.8827 7.0504 7.0013 8.16634 7.0013C11.6663 7.0013 15.1663 4.66797 19.833 4.66797ZM16.9163 14.0013C16.9163 15.6121 15.6105 16.918 13.9997 16.918C12.3888 16.918 11.083 15.6121 11.083 14.0013C11.083 12.3905 12.3888 11.0846 13.9997 11.0846C15.6105 11.0846 16.9163 12.3905 16.9163 14.0013Z" stroke="#15B377" stroke-width="1.35" stroke-linecap="round" stroke-linejoin="round"/>
</g>
</svg>
