<svg width="24" height="24" viewBox="0 0 24 24" fill="none" xmlns="http://www.w3.org/2000/svg">
<path d="M13.3358 3.33579L13.8661 2.80546V2.80546L13.3358 3.33579ZM18.6642 8.66421L19.1945 8.13388L19.1945 8.13388L18.6642 8.66421ZM8.75 12.5C8.33579 12.5 8 12.8358 8 13.25C8 13.6642 8.33579 14 8.75 14V12.5ZM12.25 14C12.6642 14 13 13.6642 13 13.25C13 12.8358 12.6642 12.5 12.25 12.5V14ZM8.75 16.5C8.33579 16.5 8 16.8358 8 17.25C8 17.6642 8.33579 18 8.75 18V16.5ZM15.25 18C15.6642 18 16 17.6642 16 17.25C16 16.8358 15.6642 16.5 15.25 16.5V18ZM6.75 3.5H11.9216V2H6.75V3.5ZM18.5 10.0784V19.25H20V10.0784H18.5ZM12.8055 3.86612L18.1339 9.19454L19.1945 8.13388L13.8661 2.80546L12.8055 3.86612ZM5.5 19.25V4.75H4V19.25H5.5ZM17.25 20.5H6.75V22H17.25V20.5ZM4 19.25C4 20.7688 5.23122 22 6.75 22V20.5C6.05964 20.5 5.5 19.9404 5.5 19.25H4ZM20 10.0784C20 9.34908 19.7103 8.64961 19.1945 8.13388L18.1339 9.19454C18.3683 9.42896 18.5 9.74691 18.5 10.0784H20ZM11.9216 3.5C12.2531 3.5 12.571 3.6317 12.8055 3.86612L13.8661 2.80546C13.3504 2.28973 12.6509 2 11.9216 2V3.5ZM18.5 19.25C18.5 19.9404 17.9404 20.5 17.25 20.5V22C18.7688 22 20 20.7688 20 19.25H18.5ZM6.75 2C5.23122 2 4 3.23122 4 4.75H5.5C5.5 4.05964 6.05964 3.5 6.75 3.5V2ZM12 3.25V7.25H13.5V3.25H12ZM14.75 10H18.75V8.5H14.75V10ZM12 7.25C12 8.76878 13.2312 10 14.75 10V8.5C14.0596 8.5 13.5 7.94036 13.5 7.25H12ZM8.75 14H12.25V12.5H8.75V14ZM8.75 18H15.25V16.5H8.75V18Z" fill="#3D3D3D"/>
</svg>
