<svg width="20" height="21" viewBox="0 0 20 21" fill="none" xmlns="http://www.w3.org/2000/svg">
<path d="M17.5 9.00004H2.5M13.3333 2.33337V5.66671M6.66667 2.33337V5.66671M6.5 19H13.5C14.9001 19 15.6002 19 16.135 18.7276C16.6054 18.4879 16.9878 18.1054 17.2275 17.635C17.5 17.1002 17.5 16.4002 17.5 15V8.00004C17.5 6.59991 17.5 5.89984 17.2275 5.36506C16.9878 4.89466 16.6054 4.51221 16.135 4.27252C15.6002 4.00004 14.9001 4.00004 13.5 4.00004H6.5C5.09987 4.00004 4.3998 4.00004 3.86502 4.27252C3.39462 4.51221 3.01217 4.89466 2.77248 5.36506C2.5 5.89984 2.5 6.59991 2.5 8.00004V15C2.5 16.4002 2.5 17.1002 2.77248 17.635C3.01217 18.1054 3.39462 18.4879 3.86502 18.7276C4.3998 19 5.09987 19 6.5 19Z" stroke="#B0B0B0" stroke-width="1.3" stroke-linecap="round" stroke-linejoin="round"/>
</svg>

