<svg width="28" height="28" viewBox="0 0 28 28" fill="none" xmlns="http://www.w3.org/2000/svg">
<g id="camera-plus">
<path id="Icon" d="M25.6673 13.4173V17.034C25.6673 19.6476 25.6673 20.9544 25.1587 21.9526C24.7113 22.8307 23.9974 23.5446 23.1193 23.992C22.121 24.5007 20.8142 24.5007 18.2007 24.5007H9.80065C7.18707 24.5007 5.88028 24.5007 4.88203 23.992C4.00394 23.5446 3.29003 22.8307 2.84262 21.9526C2.33398 20.9544 2.33398 19.6476 2.33398 17.034V10.9673C2.33398 8.35374 2.33398 7.04695 2.84262 6.0487C3.29003 5.17061 4.00394 4.4567 4.88203 4.00929C5.88028 3.50065 7.18707 3.50065 9.80065 3.50065H14.584M22.1673 9.33398V2.33398M18.6673 5.83398H25.6673M18.6673 14.0007C18.6673 16.578 16.578 18.6673 14.0007 18.6673C11.4233 18.6673 9.33398 16.578 9.33398 14.0007C9.33398 11.4233 11.4233 9.33398 14.0007 9.33398C16.578 9.33398 18.6673 11.4233 18.6673 14.0007Z" stroke="#4F4F4F" stroke-width="1.35273" stroke-linecap="round" stroke-linejoin="round"/>
</g>
</svg>
