<svg width="30" height="30" viewBox="0 0 30 30" fill="none" xmlns="http://www.w3.org/2000/svg">
<g id="check-verified-02">
<path id="Icon" d="M11.25 15L13.75 17.5L19.375 11.875M22.3765 6.24813C22.6339 6.87067 23.1279 7.3655 23.7501 7.62384L25.9315 8.52747C26.5541 8.78535 27.0487 9.27999 27.3066 9.90257C27.5645 10.5252 27.5645 11.2247 27.3066 11.8473L26.4036 14.0273C26.1457 14.6501 26.1453 15.3503 26.4045 15.9729L27.3058 18.1522C27.4337 18.4606 27.4995 18.7911 27.4996 19.1249C27.4996 19.4587 27.4339 19.7893 27.3062 20.0977C27.1784 20.4061 26.9912 20.6863 26.7551 20.9223C26.519 21.1583 26.2388 21.3455 25.9304 21.4731L23.7504 22.3761C23.1279 22.6335 22.6331 23.1276 22.3748 23.7497L21.4712 25.9313C21.2133 26.5539 20.7187 27.0485 20.0961 27.3064C19.4736 27.5643 18.7741 27.5643 18.1515 27.3064L15.9716 26.4034C15.349 26.1462 14.6498 26.1467 14.0276 26.4049L11.8461 27.3072C11.2239 27.5645 10.525 27.5643 9.90296 27.3066C9.28091 27.0489 8.78657 26.5549 8.52852 25.9329L7.62465 23.7507C7.36725 23.1282 6.87318 22.6334 6.25106 22.375L4.06958 21.4714C3.44729 21.2136 2.95282 20.7193 2.69485 20.0971C2.43689 19.4749 2.43654 18.7757 2.69388 18.1532L3.59683 15.9732C3.85407 15.3506 3.85354 14.6513 3.59537 14.0291L2.69372 11.846C2.56588 11.5376 2.50005 11.2071 2.5 10.8733C2.49995 10.5395 2.56567 10.2089 2.6934 9.90054C2.82114 9.59214 3.00839 9.31194 3.24446 9.07594C3.48053 8.83994 3.76078 8.65277 4.06921 8.52513L6.24912 7.62215C6.87109 7.36496 7.36561 6.8715 7.62413 6.25007L8.52773 4.06851C8.7856 3.44593 9.28022 2.95129 9.90278 2.69341C10.5253 2.43553 11.2248 2.43553 11.8474 2.69341L14.0273 3.59639C14.6499 3.85364 15.3491 3.85312 15.9713 3.59493L18.1537 2.69481C18.7762 2.43707 19.4755 2.43713 20.098 2.69496C20.7204 2.95279 21.215 3.44729 21.4729 4.0697L22.3767 6.25191L22.3765 6.24813Z" stroke="#3D3D3D" stroke-width="2" stroke-linecap="round" stroke-linejoin="round"/>
</g>
</svg>
