<svg width="50" height="50" viewBox="0 0 50 50" fill="none" xmlns="http://www.w3.org/2000/svg">
  <path d="M45.8327 23.0956V25.0122C45.8301 29.5048 44.3754 33.8762 41.6855 37.4744C38.9955 41.0726 35.2145 43.7049 30.9063 44.9787C26.5982 46.2525 21.9936 46.0995 17.7795 44.5426C13.5654 42.9857 9.96738 40.1083 7.52218 36.3395C5.07699 32.5707 3.91558 28.1124 4.21118 23.6296C4.50677 19.1468 6.24353 14.8796 9.16243 11.4645C12.0813 8.04937 16.026 5.6693 20.4081 4.67922C24.7902 3.68915 29.3749 4.14212 33.4785 5.97058M45.8327 8.33366L24.9993 29.1878L18.7493 22.9378" stroke="url(#paint0_linear_3944_154713)" stroke-width="5" stroke-linecap="round" stroke-linejoin="round"/>
  <defs>
    <linearGradient id="paint0_linear_3944_154713" x1="5.19624" y1="4.16699" x2="45.8327" y2="4.16699" gradientUnits="userSpaceOnUse">
      <stop stop-color="#18B475"/>
      <stop offset="1" stop-color="#106882"/>
    </linearGradient>
  </defs>
</svg>
