<svg width="40" height="40" viewBox="0 0 40 40" fill="none" xmlns="http://www.w3.org/2000/svg">
<path d="M15.0007 20.0002L18.334 23.3335L25.834 15.8335M12.2236 6.36465C13.5633 6.25774 14.8352 5.73093 15.8581 4.8592C18.2452 2.82493 21.7561 2.82493 24.1432 4.8592C25.1661 5.73093 26.438 6.25774 27.7777 6.36466C30.9041 6.61414 33.3867 9.09674 33.6362 12.2231C33.7431 13.5628 34.2699 14.8347 35.1416 15.8576C37.1759 18.2447 37.1759 21.7556 35.1416 24.1427C34.2699 25.1656 33.7431 26.4375 33.6362 27.7772C33.3867 30.9036 30.9041 33.3862 27.7777 33.6357C26.438 33.7426 25.1661 34.2694 24.1432 35.1411C21.7561 37.1754 18.2452 37.1754 15.8581 35.1411C14.8352 34.2694 13.5633 33.7426 12.2236 33.6357C9.09723 33.3862 6.61463 30.9036 6.36514 27.7772C6.25823 26.4375 5.73141 25.1656 4.85968 24.1427C2.82542 21.7556 2.82542 18.2447 4.85968 15.8576C5.73141 14.8347 6.25823 13.5628 6.36514 12.2231C6.61463 9.09674 9.09723 6.61414 12.2236 6.36465Z" stroke="#15B377" stroke-width="2" stroke-linecap="round" stroke-linejoin="round"/>
</svg>
