<svg width="32" height="32" viewBox="0 0 32 32" fill="none" xmlns="http://www.w3.org/2000/svg">
<path d="M29.3337 13.3334H2.66699M2.66699 10.9334L2.66699 21.0667C2.66699 22.5602 2.66699 23.3069 2.95764 23.8773C3.2133 24.3791 3.62125 24.787 4.12302 25.0427C4.69345 25.3334 5.44019 25.3334 6.93366 25.3334L25.067 25.3334C26.5605 25.3334 27.3072 25.3334 27.8776 25.0427C28.3794 24.787 28.7874 24.3791 29.043 23.8773C29.3337 23.3069 29.3337 22.5602 29.3337 21.0667V10.9334C29.3337 9.43988 29.3337 8.69315 29.043 8.12271C28.7874 7.62095 28.3794 7.213 27.8776 6.95734C27.3072 6.66669 26.5605 6.66669 25.067 6.66669L6.93366 6.66669C5.44019 6.66669 4.69345 6.66669 4.12302 6.95734C3.62125 7.213 3.2133 7.62095 2.95764 8.12271C2.66699 8.69314 2.66699 9.43988 2.66699 10.9334Z" stroke="white" stroke-width="2.13333" stroke-linecap="round" stroke-linejoin="round"/>
</svg>

