<svg width="34" height="36" viewBox="0 0 34 36" fill="none" xmlns="http://www.w3.org/2000/svg">
<g filter="url(#filter0_d_5966_101955)">
<rect x="2" y="1" width="30" height="32" rx="8" fill="white"/>
<rect x="2.5" y="1.5" width="29" height="31" rx="7.5" stroke="#E7E7E7"/>
<path d="M20.3333 11.9998V11.3332C20.3333 10.3997 20.3333 9.93304 20.1517 9.57652C19.9919 9.26292 19.7369 9.00795 19.4233 8.84816C19.0668 8.6665 18.6001 8.6665 17.6667 8.6665H16.3333C15.3999 8.6665 14.9332 8.6665 14.5767 8.84816C14.2631 9.00795 14.0081 9.26292 13.8483 9.57652C13.6667 9.93304 13.6667 10.3997 13.6667 11.3332V11.9998M9.5 11.9998H24.5M22.8333 11.9998V21.3332C22.8333 22.7333 22.8333 23.4334 22.5608 23.9681C22.3212 24.4386 21.9387 24.821 21.4683 25.0607C20.9335 25.3332 20.2335 25.3332 18.8333 25.3332H15.1667C13.7665 25.3332 13.0665 25.3332 12.5317 25.0607C12.0613 24.821 11.6788 24.4386 11.4392 23.9681C11.1667 23.4334 11.1667 22.7333 11.1667 21.3332V11.9998" stroke="#4F4F4F" stroke-width="1.66667" stroke-linecap="round" stroke-linejoin="round"/>
</g>
<defs>
<filter id="filter0_d_5966_101955" x="0" y="0" width="34" height="36" filterUnits="userSpaceOnUse" color-interpolation-filters="sRGB">
<feFlood flood-opacity="0" result="BackgroundImageFix"/>
<feColorMatrix in="SourceAlpha" type="matrix" values="0 0 0 0 0 0 0 0 0 0 0 0 0 0 0 0 0 0 127 0" result="hardAlpha"/>
<feOffset dy="1"/>
<feGaussianBlur stdDeviation="1"/>
<feComposite in2="hardAlpha" operator="out"/>
<feColorMatrix type="matrix" values="0 0 0 0 0.0627451 0 0 0 0 0.0941176 0 0 0 0 0.156863 0 0 0 0.05 0"/>
<feBlend mode="normal" in2="BackgroundImageFix" result="effect1_dropShadow_5966_101955"/>
<feBlend mode="normal" in="SourceGraphic" in2="effect1_dropShadow_5966_101955" result="shape"/>
</filter>
</defs>
</svg>
