<svg width="14" height="18" viewBox="0 0 14 18" fill="none" xmlns="http://www.w3.org/2000/svg">
<path d="M8.11381 1.77722L8.64414 1.24689L8.64414 1.24689L8.11381 1.77722ZM12.5542 6.21757L13.0845 5.68724L13.0845 5.68724L12.5542 6.21757ZM4.29232 17.4557C4.70653 17.4557 5.04232 17.1199 5.04232 16.7057C5.04232 16.2915 4.70653 15.9557 4.29232 15.9557V17.4557ZM9.70898 15.9557C9.29477 15.9557 8.95898 16.2915 8.95898 16.7057C8.95898 17.1199 9.29477 17.4557 9.70898 17.4557V15.9557ZM7.75065 10.4557C7.75065 10.0415 7.41486 9.70573 7.00065 9.70573C6.58644 9.70573 6.25065 10.0415 6.25065 10.4557H7.75065ZM7.00065 15.6641L6.47032 16.1944C6.61097 16.335 6.80174 16.4141 7.00065 16.4141C7.19956 16.4141 7.39033 16.335 7.53098 16.1944L7.00065 15.6641ZM9.61431 14.1111C9.90721 13.8182 9.90721 13.3433 9.61431 13.0504C9.32142 12.7575 8.84655 12.7575 8.55365 13.0504L9.61431 14.1111ZM5.44765 13.0504C5.15475 12.7575 4.67988 12.7575 4.38699 13.0504C4.09409 13.3433 4.09409 13.8182 4.38699 14.1111L5.44765 13.0504ZM2.62565 2.03906H6.93529V0.539062H2.62565V2.03906ZM12.2923 7.39609V15.0391H13.7923V7.39609H12.2923ZM7.58348 2.30755L12.0238 6.7479L13.0845 5.68724L8.64414 1.24689L7.58348 2.30755ZM1.70898 15.0391V2.95573H0.208984V15.0391H1.70898ZM4.29232 15.9557H2.62565V17.4557H4.29232V15.9557ZM11.3757 15.9557H9.70898V17.4557H11.3757V15.9557ZM0.208984 15.0391C0.208984 16.3738 1.29096 17.4557 2.62565 17.4557V15.9557C2.11939 15.9557 1.70898 15.5453 1.70898 15.0391H0.208984ZM13.7923 7.39609C13.7923 6.75515 13.5377 6.14046 13.0845 5.68724L12.0238 6.7479C12.1957 6.91981 12.2923 7.15297 12.2923 7.39609H13.7923ZM6.93529 2.03906C7.17841 2.03906 7.41157 2.13564 7.58348 2.30755L8.64414 1.24689C8.19092 0.793675 7.57623 0.539062 6.93529 0.539062V2.03906ZM12.2923 15.0391C12.2923 15.5453 11.8819 15.9557 11.3757 15.9557V17.4557C12.7103 17.4557 13.7923 16.3738 13.7923 15.0391H12.2923ZM2.62565 0.539062C1.29096 0.539062 0.208984 1.62104 0.208984 2.95573H1.70898C1.70898 2.44947 2.11939 2.03906 2.62565 2.03906V0.539062ZM6.87565 1.70573V5.03906H8.37565V1.70573H6.87565ZM9.29232 7.45573H12.6257V5.95573H9.29232V7.45573ZM6.87565 5.03906C6.87565 6.37375 7.95763 7.45573 9.29232 7.45573V5.95573C8.78606 5.95573 8.37565 5.54532 8.37565 5.03906H6.87565ZM6.25065 10.4557V15.6641H7.75065V10.4557H6.25065ZM7.53098 16.1944L9.61431 14.1111L8.55365 13.0504L6.47032 15.1337L7.53098 16.1944ZM7.53098 15.1337L5.44765 13.0504L4.38699 14.1111L6.47032 16.1944L7.53098 15.1337Z" fill="#4F4F4F"/>
</svg>
