<svg xmlns="http://www.w3.org/2000/svg" width="20" height="20" viewBox="0 0 20 20" fill="none">
<path d="M15.0007 8.33332L11.6673 4.99999M2.08398 17.9167L4.90429 17.6033C5.24887 17.565 5.42115 17.5459 5.58219 17.4937C5.72506 17.4475 5.86102 17.3821 5.98639 17.2995C6.1277 17.2063 6.25027 17.0837 6.49542 16.8386L17.5007 5.83332C18.4211 4.91285 18.4211 3.42046 17.5007 2.49999C16.5802 1.57951 15.0878 1.57951 14.1673 2.49999L3.16209 13.5052C2.91694 13.7504 2.79436 13.8729 2.70118 14.0142C2.61851 14.1396 2.55316 14.2756 2.50691 14.4185C2.45478 14.5795 2.43564 14.7518 2.39735 15.0964L2.08398 17.9167Z" stroke="#4F4F4F" stroke-width="1.66667" stroke-linecap="round" stroke-linejoin="round"/>
</svg>
