<svg width="19" height="18" viewBox="0 0 19 18" fill="none" xmlns="http://www.w3.org/2000/svg">
  <path d="M9.5 3.5625C9.91421 3.5625 10.25 3.22671 10.25 2.8125C10.25 2.39829 9.91421 2.0625 9.5 2.0625C9.08579 2.0625 8.75 2.39829 8.75 2.8125C8.75 3.22671 9.08579 3.5625 9.5 3.5625Z" fill="black"/>
  <path d="M9.5 9.75C9.91421 9.75 10.25 9.41421 10.25 9C10.25 8.58579 9.91421 8.25 9.5 8.25C9.08579 8.25 8.75 8.58579 8.75 9C8.75 9.41421 9.08579 9.75 9.5 9.75Z" fill="black"/>
  <path d="M9.5 15.9375C9.91421 15.9375 10.25 15.6017 10.25 15.1875C10.25 14.7733 9.91421 14.4375 9.5 14.4375C9.08579 14.4375 8.75 14.7733 8.75 15.1875C8.75 15.6017 9.08579 15.9375 9.5 15.9375Z" fill="black"/>
  <path d="M9.5 3.5625C9.91421 3.5625 10.25 3.22671 10.25 2.8125C10.25 2.39829 9.91421 2.0625 9.5 2.0625C9.08579 2.0625 8.75 2.39829 8.75 2.8125C8.75 3.22671 9.08579 3.5625 9.5 3.5625Z" stroke="white" stroke-width="1.5" stroke-linecap="round" stroke-linejoin="round"/>
  <path d="M9.5 9.75C9.91421 9.75 10.25 9.41421 10.25 9C10.25 8.58579 9.91421 8.25 9.5 8.25C9.08579 8.25 8.75 8.58579 8.75 9C8.75 9.41421 9.08579 9.75 9.5 9.75Z" stroke="white" stroke-width="1.5" stroke-linecap="round" stroke-linejoin="round"/>
  <path d="M9.5 15.9375C9.91421 15.9375 10.25 15.6017 10.25 15.1875C10.25 14.7733 9.91421 14.4375 9.5 14.4375C9.08579 14.4375 8.75 14.7733 8.75 15.1875C8.75 15.6017 9.08579 15.9375 9.5 15.9375Z" stroke="white" stroke-width="1.5" stroke-linecap="round" stroke-linejoin="round"/>
</svg>
