<svg width="25" height="25" viewBox="0 0 25 25" fill="none" xmlns="http://www.w3.org/2000/svg">
<path d="M20.8327 13.021V7.0835C20.8327 5.33333 20.8327 4.45825 20.4921 3.78978C20.1925 3.20177 19.7144 2.7237 19.1264 2.4241C18.4579 2.0835 17.5828 2.0835 15.8327 2.0835H9.16602C7.41585 2.0835 6.54077 2.0835 5.8723 2.4241C5.28429 2.7237 4.80622 3.20177 4.50662 3.78978C4.16602 4.45825 4.16602 5.33333 4.16602 7.0835V17.9168C4.16602 19.667 4.16602 20.5421 4.50662 21.2105C4.80622 21.7986 5.28429 22.2766 5.8723 22.5762C6.54077 22.9168 7.41583 22.9168 9.16594 22.9168H12.4993M15.1035 19.7918L17.1868 21.8752L21.8744 17.1877" stroke="#3D3D3D" stroke-width="2" stroke-linecap="round" stroke-linejoin="round"/>
</svg>
