<svg width="28" height="28" viewBox="0 0 28 28" fill="none" xmlns="http://www.w3.org/2000/svg">
<g id="file-check-02">
<path id="Icon" d="M23.3327 14.582V7.93203C23.3327 5.97185 23.3327 4.99176 22.9512 4.24306C22.6156 3.5845 22.0802 3.04907 21.4217 2.71351C20.673 2.33203 19.6929 2.33203 17.7327 2.33203H10.266C8.30583 2.33203 7.32574 2.33203 6.57705 2.71351C5.91848 3.04907 5.38305 3.5845 5.04749 4.24306C4.66602 4.99176 4.66602 5.97185 4.66602 7.93203V20.0654C4.66602 22.0255 4.66602 23.0056 5.04749 23.7543C5.38305 24.4129 5.91848 24.9483 6.57705 25.2839C7.32574 25.6654 8.30583 25.6654 10.266 25.6654H13.9993M16.3327 12.832H9.33268M11.666 17.4987H9.33268M18.666 8.16536H9.33268M16.916 22.1654L19.2493 24.4987L24.4994 19.2487" stroke="#4F4F4F" stroke-width="2" stroke-linecap="round" stroke-linejoin="round"/>
</g>
</svg>
