<svg width="60" height="60" viewBox="0 0 60 60" fill="none" xmlns="http://www.w3.org/2000/svg">
  <path d="M30 25V35M18.6178 8.55257C21.8485 6.31258 25.771 5 30 5C41.0457 5 50 13.9543 50 25V28.0917M11.0408 18.6152C10.3658 20.6202 10 22.7674 10 25V35C10 44.0872 16.0604 51.7588 24.3599 54.1937M49.147 40.7968C47.3234 46.8284 42.7277 51.6565 36.8419 53.7991M35.8124 15.3659C34.116 14.3402 32.1269 13.75 30 13.75C23.7868 13.75 18.75 18.7868 18.75 25V32.375M41.25 27.6V35C41.25 41.2132 36.2132 46.25 30 46.25C27.8784 46.25 25.8939 45.6627 24.2003 44.6418" stroke="#15B377" stroke-width="3" stroke-linecap="round" stroke-linejoin="round"/>
</svg>
