<svg width="30" height="30" viewBox="0 0 30 30" fill="none" xmlns="http://www.w3.org/2000/svg">
<path d="M25.625 9.09741L15 15.0002M15 15.0002L4.37496 9.09741M15 15.0002L15 26.8752M26.25 20.0734V9.92703C26.25 9.49873 26.25 9.28458 26.1869 9.09358C26.1311 8.92461 26.0398 8.76951 25.9192 8.63865C25.7829 8.49072 25.5957 8.38672 25.2213 8.17872L15.9713 3.03983C15.6168 2.84288 15.4395 2.74441 15.2518 2.7058C15.0857 2.67163 14.9143 2.67163 14.7482 2.7058C14.5605 2.74441 14.3832 2.84288 14.0287 3.03983L4.77871 8.17872C4.40431 8.38672 4.21711 8.49073 4.08079 8.63865C3.9602 8.76951 3.86893 8.92461 3.81311 9.09358C3.75 9.28458 3.75 9.49873 3.75 9.92704V20.0734C3.75 20.5017 3.75 20.7159 3.81311 20.9069C3.86893 21.0758 3.9602 21.2309 4.08079 21.3618C4.21711 21.5097 4.40431 21.6137 4.77872 21.8217L14.0287 26.9606C14.3832 27.1576 14.5605 27.256 14.7482 27.2947C14.9143 27.3288 15.0857 27.3288 15.2518 27.2947C15.4395 27.256 15.6168 27.1576 15.9713 26.9606L25.2213 21.8217C25.5957 21.6137 25.7829 21.5097 25.9192 21.3618C26.0398 21.2309 26.1311 21.0758 26.1869 20.9069C26.25 20.7159 26.25 20.5017 26.25 20.0734Z" stroke="#4F4F4F" stroke-width="2" stroke-linecap="round" stroke-linejoin="round"/>
</svg>

