<svg xmlns="http://www.w3.org/2000/svg" width="25" height="26" viewBox="0 0 25 26" fill="none">
  <path d="M14.0933 9.20001C13.497 9.62511 12.7673 9.87516 11.9792 9.87516C9.96567 9.87516 8.33337 8.24287 8.33337 6.22933C8.33337 4.21579 9.96567 2.5835 11.9792 2.5835C13.2844 2.5835 14.4294 3.26935 15.0735 4.30031M6.25004 21.4243H8.96909C9.32361 21.4243 9.67596 21.4665 10.0196 21.5508L12.8926 22.249C13.516 22.4009 14.1654 22.4156 14.7953 22.2933L17.9719 21.6753C18.811 21.5118 19.5829 21.11 20.1879 20.5215L22.4353 18.3353C23.0772 17.712 23.0772 16.7006 22.4353 16.0763C21.8575 15.5142 20.9425 15.4509 20.2887 15.9276L17.6694 17.8386C17.2943 18.1128 16.8379 18.2604 16.3684 18.2604H13.8391L15.4491 18.2603C16.3565 18.2603 17.0916 17.5453 17.0916 16.6626V16.343C17.0916 15.6101 16.5788 14.971 15.848 14.7938L13.3632 14.1895C12.9588 14.0914 12.5446 14.0418 12.1283 14.0418C11.1233 14.0418 9.3041 14.8739 9.3041 14.8739L6.25004 16.1511M20.8334 7.271C20.8334 9.28453 19.2011 10.9168 17.1875 10.9168C15.174 10.9168 13.5417 9.28453 13.5417 7.271C13.5417 5.25746 15.174 3.62516 17.1875 3.62516C19.2011 3.62516 20.8334 5.25746 20.8334 7.271ZM2.08337 15.7085L2.08337 21.7502C2.08337 22.3335 2.08337 22.6252 2.19691 22.8481C2.29678 23.0441 2.45613 23.2034 2.65213 23.3033C2.87496 23.4168 3.16665 23.4168 3.75004 23.4168H4.58337C5.16676 23.4168 5.45846 23.4168 5.68128 23.3033C5.87728 23.2034 6.03664 23.0441 6.13651 22.8481C6.25004 22.6252 6.25004 22.3335 6.25004 21.7502V15.7085C6.25004 15.1251 6.25004 14.8334 6.13651 14.6106C6.03664 14.4146 5.87728 14.2552 5.68128 14.1554C5.45846 14.0418 5.16676 14.0418 4.58337 14.0418L3.75004 14.0418C3.16665 14.0418 2.87496 14.0418 2.65213 14.1554C2.45613 14.2552 2.29678 14.4146 2.19691 14.6106C2.08337 14.8334 2.08337 15.1251 2.08337 15.7085Z" stroke="#4F4F4F" stroke-width="2" stroke-linecap="round" stroke-linejoin="round"/>
</svg>
