<svg width="8" height="11" viewBox="0 0 8 11" fill="none" xmlns="http://www.w3.org/2000/svg">
<path opacity="0.6" fill-rule="evenodd" clip-rule="evenodd" d="M4 0.666748C2.34315 0.666748 1 2.0099 1 3.66675V4.93431C0.402199 5.28012 0 5.92647 0 6.66675V8.66675C0 9.77132 0.895431 10.6667 2 10.6667H6C7.10457 10.6667 8 9.77132 8 8.66675V6.66675C8 5.92647 7.5978 5.28012 7 4.93431V3.66675C7 2.0099 5.65685 0.666748 4 0.666748ZM5 4.66675V3.66675C5 3.11447 4.55228 2.66675 4 2.66675C3.44772 2.66675 3 3.11447 3 3.66675V4.66675H5Z" fill="#52525C"/>
</svg>

