<svg width="21" height="21" viewBox="0 0 21 21" fill="none" xmlns="http://www.w3.org/2000/svg">
<path d="M14.6663 9.00008V7.33341C14.6663 5.03223 12.8009 3.16675 10.4997 3.16675C8.19849 3.16675 6.33301 5.03223 6.33301 7.33341V9.00008M10.4997 12.7501V14.4167M7.83301 18.1667H13.1663C14.5665 18.1667 15.2665 18.1667 15.8013 17.8943C16.2717 17.6546 16.6542 17.2721 16.8939 16.8017C17.1663 16.2669 17.1663 15.5669 17.1663 14.1667V13.0001C17.1663 11.5999 17.1663 10.8999 16.8939 10.3651C16.6542 9.8947 16.2717 9.51225 15.8013 9.27257C15.2665 9.00008 14.5665 9.00008 13.1663 9.00008H7.83301C6.43288 9.00008 5.73281 9.00008 5.19803 9.27257C4.72763 9.51225 4.34517 9.8947 4.10549 10.3651C3.83301 10.8999 3.83301 11.6 3.83301 13.0001V14.1667C3.83301 15.5669 3.83301 16.2669 4.10549 16.8017C4.34517 17.2721 4.72763 17.6546 5.19803 17.8943C5.73281 18.1667 6.43288 18.1667 7.83301 18.1667Z" stroke="#B0B0B0" stroke-width="1.3" stroke-linecap="round" stroke-linejoin="round"/>
</svg>

