<svg width="48" height="48" viewBox="0 0 48 48" fill="none" xmlns="http://www.w3.org/2000/svg">
<g clip-path="url(#clip0_5291_58357)">
<path d="M34.2811 0H13.365C5.98373 0 0 6.02817 0 13.4643V34.5357C0 41.9718 5.98373 48 13.365 48H34.2811C41.6624 48 47.6461 41.9718 47.6461 34.5357V13.4643C47.6461 6.02817 41.6624 0 34.2811 0Z" fill="url(#paint0_linear_5291_58357)"/>
<path fill-rule="evenodd" clip-rule="evenodd" d="M18.4866 17.2139C21.1835 13.2292 27.3374 13.342 29.8386 17.5523L33.0961 23.0362C33.0961 23.0362 33.0961 23.0362 33.0961 23.0362C35.6661 27.362 32.4528 32.7692 27.3127 32.7692H20.7972C15.6567 32.7692 12.4438 27.362 15.0138 23.0362C15.0138 23.0363 15.0138 23.0362 15.0138 23.0362L18.4724 17.2139H18.4866ZM28.6322 18.229C26.5983 14.8052 21.5121 14.8052 19.4782 18.229L19.2771 18.5674H19.2767L16.2202 23.7129C14.1863 27.1363 16.7288 31.4157 20.7972 31.4157H27.3127C31.3807 31.4157 33.9237 27.1363 31.8898 23.7129L28.6322 18.229C28.6322 18.229 28.6322 18.229 28.6322 18.229Z" fill="white"/>
<path fill-rule="evenodd" clip-rule="evenodd" d="M34.3168 11.837C34.3168 11.837 34.3168 11.8371 34.3168 11.837L40.772 22.9486C45.2336 30.6288 39.5519 40.1538 30.5083 40.1538H17.5983C8.55476 40.1538 2.87304 30.6293 7.33457 22.9487L12.8109 13.5222L13.7893 11.837C18.3104 4.05431 29.7958 4.05433 34.3168 11.837ZM15.8449 12.8737C19.511 6.69235 28.6858 6.71794 32.3063 12.9505L38.7616 24.0621C42.3492 30.2378 37.7804 37.897 30.5083 37.897H17.5983C10.3263 37.897 5.75747 30.2383 9.34506 24.0621C9.34506 24.0621 9.34507 24.0621 9.34506 24.0621L15.8449 12.8737Z" fill="white"/>
<path d="M39.2363 23.47L31.4893 19.0345C31.1394 18.8342 31.1325 18.3211 31.4768 18.1108L39.1011 13.4608C39.4458 13.2505 39.8834 13.5009 39.8889 13.9115L40.0117 22.9971C40.0172 23.4076 39.5866 23.6703 39.2363 23.47Z" fill="white"/>
<path d="M26.748 43.7806L19.001 39.5467C18.6511 39.3555 18.6442 38.8657 18.9885 38.665L26.6128 34.2264C26.9576 34.0257 27.3951 34.2647 27.4006 34.6566L27.5234 43.3292C27.529 43.7211 27.0983 43.9718 26.748 43.7806Z" fill="white"/>
<path d="M11.9472 26.239L4.20019 21.8035C3.85034 21.6032 3.84341 21.0901 4.18773 20.8798L11.812 16.2298C12.1568 16.0196 12.5943 16.27 12.5999 16.6806L12.7226 25.7661C12.7282 26.1767 12.2975 26.4394 11.9472 26.239Z" fill="white"/>
<path d="M20.1216 27.1234L20.8438 26.2372C21.4924 26.9263 22.554 27.5734 23.9399 27.5734C25.6945 27.5734 26.2547 26.6733 26.2547 25.9558C26.2547 23.5363 20.4307 24.8726 20.4307 21.525C20.4307 19.9777 21.8757 18.9229 23.8071 18.9229C25.3112 18.9229 26.4759 19.4013 27.3012 20.2311L26.5638 21.0893C25.8264 20.3155 24.7946 19.9641 23.7183 19.9641C22.5389 19.9641 21.6985 20.5689 21.6985 21.4551C21.6985 23.5652 27.5224 22.3552 27.5224 25.8579C27.5224 27.2226 26.5492 28.6152 23.8955 28.6152C22.1853 28.6152 20.9322 27.9964 20.1211 27.1242L20.1216 27.1234Z" fill="white"/>
</g>
<defs>
<linearGradient id="paint0_linear_5291_58357" x1="23.8228" y1="48" x2="23.8228" y2="0" gradientUnits="userSpaceOnUse">
<stop stop-color="#14B376"/>
<stop offset="1" stop-color="#126983"/>
</linearGradient>
<clipPath id="clip0_5291_58357">
<rect width="47.6461" height="48" fill="white"/>
</clipPath>
</defs>
</svg>
