<svg width="56" height="26" viewBox="0 0 56 26" fill="none" xmlns="http://www.w3.org/2000/svg">
<path d="M21.3311 8.18544C21.2296 8.9639 20.7896 9.57313 20.0111 10.0131C19.3088 10.4024 18.4331 10.597 17.3838 10.597C15.9792 10.597 14.9215 10.1951 14.2108 9.39121C13.6861 8.79044 13.4238 8.05429 13.4238 7.18275C13.4238 6.51429 13.5804 5.93044 13.8934 5.43121L15.4165 5.1139C15.0781 5.68929 14.9088 6.29429 14.9088 6.9289C14.9088 7.63967 15.1204 8.18544 15.5434 8.56621C15.9665 8.95544 16.58 9.15006 17.3838 9.15006C18.6361 9.15006 19.3977 8.82852 19.6684 8.18544H18.45L19.2496 6.64967H21.3692V8.18544H21.3311ZM16.5334 13.402C16.2796 13.402 16.0765 13.3216 15.9242 13.1608C15.7719 13.0085 15.6958 12.8054 15.6958 12.5516C15.6958 12.3062 15.7719 12.1074 15.9242 11.9551C16.0765 11.8027 16.2796 11.7266 16.5334 11.7266C16.7873 11.7266 16.9861 11.7985 17.13 11.9424C17.2823 12.0947 17.3584 12.2977 17.3584 12.5516C17.3584 13.1185 17.0834 13.402 16.5334 13.402ZM18.4881 13.402C18.2342 13.402 18.0311 13.3258 17.8788 13.1735C17.7265 13.0212 17.6504 12.8139 17.6504 12.5516C17.6504 12.0016 17.9296 11.7266 18.4881 11.7266C18.7419 11.7266 18.9408 11.7985 19.0846 11.9424C19.2369 12.0947 19.3131 12.2977 19.3131 12.5516C19.3131 13.1185 19.0381 13.402 18.4881 13.402Z" fill="#3D3D3D"/>
<path d="M20.7194 8.18544V6.64967H22.9533V8.18544H20.7194Z" fill="#3D3D3D"/>
<path d="M22.1944 8.18544V6.64967H23.3367C23.6583 6.64967 23.8867 6.58198 24.0221 6.44659C24.1575 6.30275 24.2252 6.06583 24.2252 5.73583V3.38775L25.8244 2.55006V5.81198C25.8244 6.58198 25.5875 7.18275 25.1136 7.61429C24.699 7.99506 24.1575 8.18544 23.489 8.18544H22.1944ZM24.8852 11.0158C24.6313 11.0158 24.4283 10.9397 24.2759 10.7874C24.1236 10.6351 24.0475 10.4277 24.0475 10.1654C24.0475 9.92006 24.1236 9.72121 24.2759 9.5689C24.4283 9.41659 24.6313 9.34044 24.8852 9.34044C25.139 9.34044 25.3379 9.41236 25.4817 9.55621C25.634 9.70852 25.7102 9.91159 25.7102 10.1654C25.7102 10.7324 25.4352 11.0158 24.8852 11.0158Z" fill="#3D3D3D"/>
<path d="M28.1053 8.18544V0.849286L29.7045 -0.00109863V8.18544H28.1053Z" fill="#3D3D3D"/>
<path d="M36.0011 6.64967H37.1434V8.18544H35.8488C35.5611 8.18544 35.2945 8.14736 35.0491 8.07121C34.9391 8.88352 34.6134 9.52659 34.0718 10.0004C33.5811 10.4235 32.993 10.6351 32.3076 10.6351C31.7745 10.6351 31.2541 10.4997 30.7464 10.2289V8.83275C31.1864 9.07813 31.618 9.20083 32.0411 9.20083C32.5064 9.20083 32.8661 9.04852 33.1199 8.7439C33.3822 8.44775 33.5134 8.03313 33.5134 7.50006V3.38775L34.5541 2.84198L35.0999 2.55006V2.56275L35.1126 2.55006V5.73583C35.1126 6.06583 35.1803 6.30275 35.3157 6.44659C35.4511 6.58198 35.6795 6.64967 36.0011 6.64967Z" fill="#3D3D3D"/>
<path d="M43.2403 6.64967H44.243V8.18544H43.0753C42.4576 8.18544 41.95 8.02044 41.5523 7.69044C41.1461 8.02044 40.6342 8.18544 40.0165 8.18544H36.3865V6.64967H39.8515C40.4438 6.64967 40.74 6.35775 40.74 5.7739V5.69775C40.74 5.23236 40.5665 4.86006 40.2196 4.58082C39.8726 4.29313 39.4157 4.14929 38.8488 4.14929C38.4173 4.14929 37.9646 4.2339 37.4907 4.40313V2.86736L40.0673 -0.00109863H41.6792L39.3692 2.58813C40.0376 2.65582 40.6046 2.85467 41.07 3.18467C41.9161 3.76006 42.3392 4.59352 42.3392 5.68506V5.73583C42.3392 6.06583 42.4069 6.30275 42.5423 6.44659C42.6861 6.58198 42.9188 6.64967 43.2403 6.64967Z" fill="#3D3D3D"/>
<path d="M43.4763 8.18544V6.64967H44.8217C45.1433 6.64967 45.3717 6.58198 45.5071 6.44659C45.651 6.30275 45.7229 6.06583 45.7229 5.73583V4.06044L47.3221 3.22275V5.73583C47.3221 6.06583 47.3898 6.30275 47.5252 6.44659C47.6606 6.58198 47.889 6.64967 48.2106 6.64967H49.0736C49.3952 6.64967 49.6236 6.58198 49.759 6.44659C49.8944 6.30275 49.9621 6.06583 49.9621 5.73583V3.73044L51.5613 2.88006V5.73583C51.5613 6.06583 51.629 6.30275 51.7644 6.44659C51.9083 6.58198 52.141 6.64967 52.4625 6.64967H53.3256C53.6471 6.64967 53.8756 6.58198 54.011 6.44659C54.1463 6.30275 54.214 6.06583 54.214 5.73583V3.38775L55.8133 2.55006V5.81198C55.8133 6.56506 55.5848 7.15736 55.1279 7.5889C54.7302 7.96967 54.2056 8.16852 53.554 8.18544H52.2975C51.6713 8.18544 51.1594 7.99929 50.7617 7.62698C50.3979 7.99082 49.9156 8.17698 49.3148 8.18544H48.0583C47.4321 8.18544 46.9202 7.99929 46.5225 7.62698C46.1248 7.99929 45.6129 8.18544 44.9867 8.18544H43.4763Z" fill="#3D3D3D"/>
<path d="M3.32538 26.0012C2.83462 26.0012 2.36288 25.9251 1.91019 25.7728C1.46173 25.6162 1.06827 25.3941 0.729808 25.1064C0.391346 24.8145 0.148077 24.4655 0 24.0593L1.45327 23.5262C1.5125 23.6955 1.63308 23.8499 1.815 23.9895C1.99692 24.1291 2.21904 24.2412 2.48135 24.3259C2.74365 24.4105 3.025 24.4528 3.32538 24.4528C3.63423 24.4528 3.92192 24.4062 4.18846 24.3132C4.45923 24.2159 4.67712 24.0826 4.84212 23.9134C5.00712 23.7399 5.08962 23.5389 5.08962 23.3105C5.08962 23.0778 5.00289 22.8874 4.82942 22.7393C4.65596 22.587 4.43385 22.4664 4.16308 22.3776C3.89231 22.2887 3.61308 22.221 3.32538 22.1745C2.695 22.0772 2.13019 21.927 1.63096 21.7239C1.13173 21.5209 0.736154 21.2395 0.444231 20.8799C0.156538 20.5203 0.0126923 20.0549 0.0126923 19.4837C0.0126923 18.9464 0.167115 18.4768 0.475962 18.0749C0.784808 17.673 1.19096 17.3599 1.69442 17.1357C2.19788 16.9114 2.74154 16.7993 3.32538 16.7993C3.81192 16.7993 4.28154 16.8755 4.73423 17.0278C5.18692 17.1801 5.5825 17.4022 5.92096 17.6941C6.26365 17.986 6.50904 18.3372 6.65712 18.7476L5.1975 19.2743C5.13827 19.1051 5.01769 18.9507 4.83577 18.811C4.65385 18.6714 4.43173 18.5614 4.16942 18.481C3.90712 18.3964 3.62577 18.3541 3.32538 18.3541C3.025 18.3499 2.73942 18.3985 2.46865 18.5001C2.20212 18.5974 1.98423 18.7307 1.815 18.8999C1.64577 19.0691 1.56115 19.2637 1.56115 19.4837C1.56115 19.7672 1.63942 19.9809 1.79596 20.1247C1.95673 20.2685 2.17038 20.3743 2.43692 20.442C2.70346 20.5055 2.99962 20.5647 3.32538 20.6197C3.91769 20.7128 4.46558 20.8693 4.96904 21.0893C5.4725 21.3093 5.87654 21.6034 6.18115 21.9714C6.48577 22.3353 6.63808 22.7816 6.63808 23.3105C6.63808 23.8478 6.48577 24.3195 6.18115 24.7257C5.87654 25.1276 5.4725 25.4407 4.96904 25.6649C4.46558 25.8891 3.91769 26.0012 3.32538 26.0012Z" fill="#3D3D3D"/>
<path d="M12.0108 26.0012C11.41 26.0012 10.8452 25.8828 10.3164 25.6459C9.78752 25.4047 9.32214 25.0726 8.92021 24.6495C8.52252 24.2264 8.20944 23.7378 7.98098 23.1835C7.75675 22.6251 7.64464 22.0285 7.64464 21.3939C7.64464 20.7551 7.75675 20.1585 7.98098 19.6043C8.20944 19.0459 8.52252 18.5572 8.92021 18.1384C9.32214 17.7153 9.78752 17.3853 10.3164 17.1484C10.8452 16.9072 11.41 16.7866 12.0108 16.7866C12.73 16.7866 13.3921 16.9537 13.9971 17.288C14.6021 17.618 15.1035 18.0601 15.5012 18.6143L14.1177 19.3568C13.8681 19.048 13.5571 18.8005 13.1848 18.6143C12.8168 18.4282 12.4254 18.3351 12.0108 18.3351C11.6216 18.3351 11.2556 18.4155 10.9129 18.5762C10.5702 18.7328 10.2698 18.9528 10.0118 19.2362C9.75368 19.5155 9.55271 19.8412 9.40887 20.2135C9.26502 20.5816 9.1931 20.9751 9.1931 21.3939C9.1931 21.817 9.26502 22.2126 9.40887 22.5807C9.55694 22.9487 9.76002 23.2745 10.0181 23.558C10.2762 23.8372 10.5744 24.0572 10.9129 24.218C11.2556 24.3745 11.6216 24.4528 12.0108 24.4528C12.4339 24.4528 12.8273 24.3597 13.1912 24.1735C13.5593 23.9832 13.8681 23.7335 14.1177 23.4247L15.5012 24.1735C15.1035 24.7235 14.6021 25.1657 13.9971 25.4999C13.3921 25.8341 12.73 26.0012 12.0108 26.0012Z" fill="#3D3D3D"/>
<path d="M16.6988 25.8362V16.9516H20.1067C20.589 16.9516 21.0248 17.0722 21.414 17.3134C21.8032 17.5545 22.1121 17.8782 22.3405 18.2843C22.569 18.6862 22.6832 19.1326 22.6832 19.6234C22.6832 20.0253 22.6092 20.3955 22.4611 20.7339C22.3173 21.0682 22.1142 21.358 21.8519 21.6034C21.5938 21.8487 21.2955 22.0349 20.9571 22.1618L23.083 25.8362H21.2998L19.2436 22.3014H18.2473V25.8362H16.6988ZM18.2473 20.753H19.929C20.149 20.753 20.35 20.698 20.5319 20.588C20.7138 20.478 20.8598 20.3299 20.9698 20.1437C21.0798 19.9576 21.1348 19.7503 21.1348 19.5218C21.1348 19.2891 21.0798 19.0797 20.9698 18.8935C20.8598 18.7074 20.7138 18.5593 20.5319 18.4493C20.35 18.3393 20.149 18.2843 19.929 18.2843H18.2473V20.753Z" fill="#3D3D3D"/>
<path d="M27.0189 16.9516H28.8022L32.0324 25.8362H30.3888L29.8176 24.2624H26.0099L25.4388 25.8362H23.7951L27.0189 16.9516ZM26.5747 22.7139H29.2464L27.9074 19.0522L26.5747 22.7139Z" fill="#3D3D3D"/>
<path d="M35.8317 16.9516H37.6149L40.8451 25.8362H39.2015L38.6303 24.2624H34.8226L34.2515 25.8362H32.6078L35.8317 16.9516ZM35.3874 22.7139H38.0592L36.7201 19.0522L35.3874 22.7139Z" fill="#3D3D3D"/>
<path d="M41.9099 25.8362V16.9516H45.083C45.5653 16.9516 46.0011 17.0722 46.3903 17.3134C46.7837 17.5545 47.0947 17.8782 47.3232 18.2843C47.5516 18.6905 47.6659 19.1368 47.6659 19.6234C47.6659 20.1226 47.5474 20.5753 47.3105 20.9814C47.0778 21.3834 46.7647 21.7049 46.3712 21.946C45.9778 22.183 45.5484 22.3014 45.083 22.3014H43.4584V25.8362H41.9099ZM43.4584 20.753H44.918C45.138 20.753 45.3389 20.698 45.5209 20.588C45.7028 20.478 45.8466 20.3299 45.9524 20.1437C46.0624 19.9576 46.1174 19.7503 46.1174 19.5218C46.1174 19.2891 46.0624 19.0797 45.9524 18.8935C45.8466 18.7074 45.7028 18.5593 45.5209 18.4493C45.3389 18.3393 45.138 18.2843 44.918 18.2843H43.4584V20.753Z" fill="#3D3D3D"/>
<path d="M53.9861 16.9516H55.8138L52.7613 21.8318V25.8362H51.2129V21.8318L48.1604 16.9516H49.9881L51.9871 20.1437L53.9861 16.9516Z" fill="#3D3D3D"/>
</svg>
