<svg width="57" height="26" viewBox="0 0 57 26" fill="none" xmlns="http://www.w3.org/2000/svg">
<path d="M4.24921 9.21352C3.75844 9.21352 3.28671 9.13736 2.83402 8.98506C2.38556 8.82852 1.9921 8.6064 1.65364 8.31871C1.31517 8.02679 1.07191 7.67775 0.923828 7.27159L2.3771 6.73852C2.43633 6.90775 2.55691 7.06217 2.73883 7.20179C2.92075 7.3414 3.14287 7.45352 3.40517 7.53813C3.66748 7.62275 3.94883 7.66506 4.24921 7.66506C4.55806 7.66506 4.84575 7.61852 5.11229 7.52544C5.38306 7.42813 5.60094 7.29486 5.76594 7.12563C5.93094 6.95217 6.01344 6.75121 6.01344 6.52275C6.01344 6.29006 5.92671 6.09967 5.75325 5.95159C5.57979 5.79929 5.35767 5.67871 5.08691 5.58986C4.81614 5.50102 4.53691 5.43333 4.24921 5.38679C3.61883 5.28948 3.05402 5.13929 2.55479 4.93621C2.05556 4.73313 1.65998 4.45179 1.36806 4.09217C1.08037 3.73256 0.93652 3.26717 0.93652 2.69602C0.93652 2.15871 1.09094 1.68909 1.39979 1.28717C1.70864 0.885248 2.11479 0.572171 2.61825 0.34794C3.12171 0.12371 3.66537 0.0115943 4.24921 0.0115943C4.73575 0.0115943 5.20537 0.0877481 5.65806 0.240056C6.11075 0.392363 6.50633 0.614478 6.84479 0.906401C7.18748 1.19832 7.43287 1.54948 7.58094 1.95986L6.12133 2.48659C6.0621 2.31736 5.94152 2.16294 5.7596 2.02333C5.57767 1.88371 5.35556 1.77371 5.09325 1.69332C4.83094 1.60871 4.5496 1.5664 4.24921 1.5664C3.94883 1.56217 3.66325 1.61082 3.39248 1.71236C3.12594 1.80967 2.90806 1.94294 2.73883 2.11217C2.5696 2.2814 2.48498 2.47602 2.48498 2.69602C2.48498 2.97948 2.56325 3.19313 2.71979 3.33698C2.88056 3.48082 3.09421 3.58659 3.36075 3.65429C3.62729 3.71775 3.92344 3.77698 4.24921 3.83198C4.84152 3.92506 5.38941 4.08159 5.89287 4.30159C6.39633 4.52159 6.80037 4.81563 7.10498 5.18371C7.4096 5.54756 7.56191 5.9939 7.56191 6.52275C7.56191 7.06006 7.4096 7.53179 7.10498 7.93794C6.80037 8.33986 6.39633 8.65294 5.89287 8.87717C5.38941 9.1014 4.84152 9.21352 4.24921 9.21352Z" fill="#3D3D3D"/>
<path d="M12.9346 9.21352C12.3338 9.21352 11.769 9.09506 11.2402 8.85813C10.7113 8.61698 10.246 8.28486 9.84404 7.86179C9.44635 7.43871 9.13327 6.95006 8.90481 6.39583C8.68058 5.83736 8.56846 5.24083 8.56846 4.60621C8.56846 3.96736 8.68058 3.37082 8.90481 2.81659C9.13327 2.25813 9.44635 1.76948 9.84404 1.35063C10.246 0.927555 10.7113 0.597555 11.2402 0.360632C11.769 0.119478 12.3338 -0.00109863 12.9346 -0.00109863C13.6538 -0.00109863 14.316 0.166017 14.921 0.500248C15.526 0.830248 16.0273 1.27236 16.425 1.82659L15.0415 2.56909C14.7919 2.26025 14.481 2.01275 14.1087 1.82659C13.7406 1.64044 13.3492 1.54736 12.9346 1.54736C12.5454 1.54736 12.1794 1.62775 11.8367 1.78852C11.494 1.94506 11.1937 2.16506 10.9356 2.44852C10.6775 2.72775 10.4765 3.05352 10.3327 3.42583C10.1888 3.7939 10.1169 4.18736 10.1169 4.60621C10.1169 5.02929 10.1888 5.42486 10.3327 5.79294C10.4808 6.16102 10.6838 6.48679 10.9419 6.77025C11.2 7.04948 11.4983 7.26948 11.8367 7.43025C12.1794 7.58679 12.5454 7.66506 12.9346 7.66506C13.3577 7.66506 13.7512 7.57198 14.115 7.38582C14.4831 7.19544 14.7919 6.94583 15.0415 6.63698L16.425 7.38582C16.0273 7.93583 15.526 8.37794 14.921 8.71217C14.316 9.0464 13.6538 9.21352 12.9346 9.21352Z" fill="#3D3D3D"/>
<path d="M17.6226 9.04852V0.163902H21.0305C21.5128 0.163902 21.9486 0.284479 22.3378 0.525633C22.7271 0.766787 23.0359 1.09044 23.2644 1.49659C23.4928 1.89852 23.6071 2.34486 23.6071 2.83563C23.6071 3.23756 23.533 3.60775 23.3849 3.94621C23.2411 4.28044 23.038 4.57025 22.7757 4.81563C22.5176 5.06102 22.2194 5.24717 21.8809 5.37409L24.0069 9.04852H22.2236L20.1674 5.51371H19.1711V9.04852H17.6226ZM19.1711 3.96525H20.8528C21.0728 3.96525 21.2738 3.91025 21.4557 3.80025C21.6376 3.69025 21.7836 3.54217 21.8936 3.35602C22.0036 3.16986 22.0586 2.96256 22.0586 2.73409C22.0586 2.5014 22.0036 2.29198 21.8936 2.10582C21.7836 1.91967 21.6376 1.77159 21.4557 1.66159C21.2738 1.55159 21.0728 1.49659 20.8528 1.49659H19.1711V3.96525Z" fill="#3D3D3D"/>
<path d="M27.9428 0.163902H29.726L32.9562 9.04852H31.3126L30.7414 7.47467H26.9337L26.3626 9.04852H24.7189L27.9428 0.163902ZM27.4985 5.92621H30.1703L28.8312 2.26448L27.4985 5.92621Z" fill="#3D3D3D"/>
<path d="M36.7555 0.163902H38.5388L41.769 9.04852H40.1253L39.5542 7.47467H35.7465L35.1753 9.04852H33.5317L36.7555 0.163902ZM36.3113 5.92621H38.983L37.644 2.26448L36.3113 5.92621Z" fill="#3D3D3D"/>
<path d="M42.8337 9.04852V0.163902H46.0068C46.4891 0.163902 46.9249 0.284479 47.3141 0.525633C47.7076 0.766787 48.0185 1.09044 48.247 1.49659C48.4755 1.90275 48.5897 2.34909 48.5897 2.83563C48.5897 3.33486 48.4712 3.78756 48.2343 4.19371C48.0016 4.59563 47.6885 4.91717 47.2951 5.15833C46.9016 5.39525 46.4722 5.51371 46.0068 5.51371H44.3822V9.04852H42.8337ZM44.3822 3.96525H45.8418C46.0618 3.96525 46.2628 3.91025 46.4447 3.80025C46.6266 3.69025 46.7705 3.54217 46.8762 3.35602C46.9862 3.16986 47.0412 2.96256 47.0412 2.73409C47.0412 2.5014 46.9862 2.29198 46.8762 2.10582C46.7705 1.91967 46.6266 1.77159 46.4447 1.66159C46.2628 1.55159 46.0618 1.49659 45.8418 1.49659H44.3822V3.96525Z" fill="#3D3D3D"/>
<path d="M54.91 0.163902H56.7377L53.6852 5.04409V9.04852H52.1367V5.04409L49.0842 0.163902H50.9119L52.9109 3.35602L54.91 0.163902Z" fill="#3D3D3D"/>
<path d="M8.83114 20.7847C8.7296 21.5631 8.2896 22.1724 7.51114 22.6124C6.80883 23.0016 5.93306 23.1962 4.88383 23.1962C3.47921 23.1962 2.42152 22.7943 1.71075 21.9905C1.18614 21.3897 0.923828 20.6535 0.923828 19.782C0.923828 19.1135 1.08037 18.5297 1.39344 18.0305L2.91652 17.7131C2.57806 18.2885 2.40883 18.8935 2.40883 19.5281C2.40883 20.2389 2.62037 20.7847 3.04344 21.1655C3.46652 21.5547 4.07998 21.7493 4.88383 21.7493C6.13614 21.7493 6.89767 21.4278 7.16844 20.7847H5.94998L6.7496 19.2489H8.86921V20.7847H8.83114ZM4.03344 26.0012C3.7796 26.0012 3.57652 25.9208 3.42421 25.7601C3.27191 25.6078 3.19575 25.4047 3.19575 25.1508C3.19575 24.9055 3.27191 24.7066 3.42421 24.5543C3.57652 24.402 3.7796 24.3258 4.03344 24.3258C4.28729 24.3258 4.48614 24.3978 4.62998 24.5416C4.78229 24.6939 4.85844 24.897 4.85844 25.1508C4.85844 25.7178 4.58344 26.0012 4.03344 26.0012ZM5.98806 26.0012C5.73421 26.0012 5.53114 25.9251 5.37883 25.7728C5.22652 25.6205 5.15037 25.4131 5.15037 25.1508C5.15037 24.6008 5.4296 24.3258 5.98806 24.3258C6.24191 24.3258 6.44075 24.3978 6.5846 24.5416C6.73691 24.6939 6.81306 24.897 6.81306 25.1508C6.81306 25.7178 6.53806 26.0012 5.98806 26.0012Z" fill="#3D3D3D"/>
<path d="M8.21943 20.7847V19.2489H10.4533V20.7847H8.21943Z" fill="#3D3D3D"/>
<path d="M9.69441 20.7847V19.2489H10.8367C11.1583 19.2489 11.3867 19.1812 11.5221 19.0458C11.6575 18.902 11.7252 18.6651 11.7252 18.3351V15.987L13.3244 15.1493V18.4112C13.3244 19.1812 13.0875 19.782 12.6136 20.2135C12.199 20.5943 11.6575 20.7847 10.989 20.7847H9.69441ZM12.3852 23.6151C12.1313 23.6151 11.9283 23.5389 11.7759 23.3866C11.6236 23.2343 11.5475 23.027 11.5475 22.7647C11.5475 22.5193 11.6236 22.3205 11.7759 22.1681C11.9283 22.0158 12.1313 21.9397 12.3852 21.9397C12.639 21.9397 12.8379 22.0116 12.9817 22.1555C13.134 22.3078 13.2102 22.5108 13.2102 22.7647C13.2102 23.3316 12.9352 23.6151 12.3852 23.6151Z" fill="#3D3D3D"/>
<path d="M15.6053 20.7847V13.4485L17.2045 12.5981V20.7847H15.6053Z" fill="#3D3D3D"/>
<path d="M23.5011 19.2489H24.6434V20.7847H23.3488C23.0611 20.7847 22.7945 20.7466 22.5491 20.6705C22.4391 21.4828 22.1134 22.1258 21.5718 22.5997C21.0811 23.0228 20.493 23.2343 19.8076 23.2343C19.2745 23.2343 18.7541 23.0989 18.2464 22.8281V21.432C18.6864 21.6774 19.118 21.8001 19.5411 21.8001C20.0064 21.8001 20.3661 21.6478 20.6199 21.3431C20.8822 21.047 21.0134 20.6324 21.0134 20.0993V15.987L22.0541 15.4412L22.5999 15.1493V15.162L22.6126 15.1493V18.3351C22.6126 18.6651 22.6803 18.902 22.8157 19.0458C22.9511 19.1812 23.1795 19.2489 23.5011 19.2489Z" fill="#3D3D3D"/>
<path d="M30.7403 19.2489H31.743V20.7847H30.5753C29.9576 20.7847 29.45 20.6197 29.0523 20.2897C28.6461 20.6197 28.1342 20.7847 27.5165 20.7847H23.8865V19.2489H27.3515C27.9438 19.2489 28.24 18.957 28.24 18.3731V18.297C28.24 17.8316 28.0665 17.4593 27.7196 17.1801C27.3726 16.8924 26.9157 16.7485 26.3488 16.7485C25.9173 16.7485 25.4646 16.8331 24.9907 17.0024V15.4666L27.5673 12.5981H29.1792L26.8692 15.1874C27.5376 15.2551 28.1046 15.4539 28.57 15.7839C29.4161 16.3593 29.8392 17.1928 29.8392 18.2843V18.3351C29.8392 18.6651 29.9069 18.902 30.0423 19.0458C30.1861 19.1812 30.4188 19.2489 30.7403 19.2489Z" fill="#3D3D3D"/>
<path d="M30.9763 20.7847V19.2489H32.3217C32.6433 19.2489 32.8717 19.1812 33.0071 19.0458C33.151 18.902 33.2229 18.6651 33.2229 18.3351V16.6597L34.8221 15.822V18.3351C34.8221 18.6651 34.8898 18.902 35.0252 19.0458C35.1606 19.1812 35.389 19.2489 35.7106 19.2489H36.5736C36.8952 19.2489 37.1236 19.1812 37.259 19.0458C37.3944 18.902 37.4621 18.6651 37.4621 18.3351V16.3297L39.0613 15.4793V18.3351C39.0613 18.6651 39.129 18.902 39.2644 19.0458C39.4083 19.1812 39.641 19.2489 39.9625 19.2489H40.8256C41.1471 19.2489 41.3756 19.1812 41.511 19.0458C41.6463 18.902 41.714 18.6651 41.714 18.3351V15.987L43.3133 15.1493V18.4112C43.3133 19.1643 43.0848 19.7566 42.6279 20.1881C42.2302 20.5689 41.7056 20.7678 41.054 20.7847H39.7975C39.1713 20.7847 38.6594 20.5985 38.2617 20.2262C37.8979 20.5901 37.4156 20.7762 36.8148 20.7847H35.5583C34.9321 20.7847 34.4202 20.5985 34.0225 20.2262C33.6248 20.5985 33.1129 20.7847 32.4867 20.7847H30.9763Z" fill="#3D3D3D"/>
</svg>
