<svg width="41" height="40" viewBox="0 0 41 40" fill="none" xmlns="http://www.w3.org/2000/svg">
<path d="M34.6666 12.1296L20.4999 19.9999M20.4999 19.9999L6.33328 12.1296M20.4999 19.9999L20.5 35.8333M23.8333 34.8148L21.7951 35.9472C21.3224 36.2098 21.086 36.3411 20.8358 36.3925C20.6142 36.4381 20.3858 36.4381 20.1643 36.3925C19.914 36.3411 19.6776 36.2098 19.205 35.9472L6.87162 29.0953C6.37243 28.818 6.12281 28.6793 5.94106 28.4821C5.78026 28.3076 5.65858 28.1008 5.58414 27.8755C5.5 27.6208 5.5 27.3353 5.5 26.7642V13.2357C5.5 12.6647 5.5 12.3791 5.58414 12.1245C5.65858 11.8992 5.78026 11.6924 5.94106 11.5179C6.12281 11.3206 6.37242 11.182 6.87162 10.9046L19.205 4.05278C19.6776 3.79019 19.914 3.65889 20.1643 3.60741C20.3858 3.56185 20.6142 3.56185 20.8358 3.60741C21.086 3.65889 21.3224 3.79019 21.7951 4.05278L34.1284 10.9046C34.6276 11.182 34.8772 11.3206 35.0589 11.5179C35.2197 11.6924 35.3414 11.8992 35.4159 12.1244C35.5 12.3791 35.5 12.6646 35.5 13.2357L35.5 20.8333M13 7.49998L28 15.8333M32.1667 35V25M27.1667 30H37.1667" stroke="#136A83" stroke-width="2" stroke-linecap="round" stroke-linejoin="round"/>
</svg>
