<svg width="25" height="25" viewBox="0 0 25 25" fill="none" xmlns="http://www.w3.org/2000/svg">
<g id="phone-call-01">
<path id="Icon" d="M14.5497 6.49951C15.5264 6.69008 16.424 7.16777 17.1277 7.87145C17.8314 8.57513 18.3091 9.47278 18.4997 10.4495M14.5497 2.49951C16.5789 2.72495 18.4713 3.63369 19.9159 5.07652C21.3606 6.51935 22.2717 8.41052 22.4997 10.4395M10.7266 14.3626C9.52506 13.161 8.57627 11.8024 7.88028 10.3527C7.82041 10.2281 7.79048 10.1657 7.76748 10.0868C7.68576 9.80646 7.74446 9.4622 7.91447 9.22477C7.96231 9.15796 8.01947 9.1008 8.13378 8.98649C8.48338 8.63689 8.65819 8.46208 8.77247 8.2863C9.20347 7.62341 9.20347 6.76883 8.77247 6.10594C8.65819 5.93017 8.48338 5.75536 8.13378 5.40576L7.93891 5.21089C7.40747 4.67944 7.14174 4.41372 6.85636 4.26938C6.2888 3.98231 5.61854 3.98231 5.05098 4.26938C4.7656 4.41372 4.49987 4.67944 3.96843 5.21089L3.8108 5.36852C3.28117 5.89814 3.01636 6.16296 2.81411 6.52299C2.58969 6.92249 2.42833 7.54299 2.4297 8.00121C2.43092 8.41415 2.51103 8.69638 2.67124 9.26082C3.53221 12.2942 5.15668 15.1566 7.54466 17.5446C9.93264 19.9325 12.795 21.557 15.8284 22.418C16.3928 22.5782 16.6751 22.6583 17.088 22.6595C17.5462 22.6609 18.1667 22.4995 18.5662 22.2751C18.9263 22.0729 19.1911 21.808 19.7207 21.2784L19.8783 21.1208C20.4098 20.5893 20.6755 20.3236 20.8198 20.0382C21.1069 19.4707 21.1069 18.8004 20.8198 18.2329C20.6755 17.9475 20.4098 17.6818 19.8783 17.1503L19.6835 16.9554C19.3339 16.6058 19.1591 16.431 18.9833 16.3167C18.3204 15.8858 17.4658 15.8858 16.8029 16.3167C16.6271 16.431 16.4523 16.6058 16.1027 16.9554C15.9884 17.0698 15.9313 17.1269 15.8644 17.1748C15.627 17.3448 15.2828 17.4035 15.0024 17.3217C14.9235 17.2987 14.8612 17.2688 14.7365 17.2089C13.2869 16.5129 11.9282 15.5642 10.7266 14.3626Z" stroke="#4F4F4F" stroke-width="1.35273" stroke-linecap="round" stroke-linejoin="round"/>
</g>
</svg>
