<svg width="40" height="40" viewBox="0 0 40 40" fill="none" xmlns="http://www.w3.org/2000/svg">
<path d="M34.1666 12.1296L19.9999 19.9999M19.9999 19.9999L5.83328 12.1296M19.9999 19.9999L20 35.8333M35 20V13.2357C35 12.6646 35 12.3791 34.9159 12.1244C34.8414 11.8992 34.7197 11.6924 34.5589 11.5179C34.3772 11.3206 34.1276 11.182 33.6284 10.9046L21.2951 4.05278C20.8224 3.79019 20.586 3.65889 20.3358 3.60741C20.1142 3.56185 19.8858 3.56185 19.6643 3.60741C19.414 3.65889 19.1776 3.79019 18.705 4.05278L6.37162 10.9046C5.87242 11.182 5.62281 11.3206 5.44106 11.5179C5.28026 11.6924 5.15858 11.8992 5.08414 12.1245C5 12.3791 5 12.6647 5 13.2357V26.7642C5 27.3353 5 27.6208 5.08414 27.8755C5.15858 28.1008 5.28026 28.3076 5.44106 28.4821C5.62281 28.6793 5.87243 28.818 6.37162 29.0953L18.705 35.9472C19.1776 36.2098 19.414 36.3411 19.6643 36.3925C19.8858 36.4381 20.1142 36.4381 20.3358 36.3925C20.586 36.3411 20.8224 36.2098 21.2951 35.9472L21.6667 35.7407M12.5 7.49998L27.5 15.8333M36.6667 35.8333L35 34.1666M36.6667 30C36.6667 32.7614 34.4281 35 31.6667 35C28.9052 35 26.6667 32.7614 26.6667 30C26.6667 27.2386 28.9052 25 31.6667 25C34.4281 25 36.6667 27.2386 36.6667 30Z" stroke="#F79009" stroke-width="2" stroke-linecap="round" stroke-linejoin="round"/>
</svg>
