<svg width="5" height="5" viewBox="0 0 14 15" fill="none" xmlns="http://www.w3.org/2000/svg">
<path d="M12.25 5.74976L12.25 2.24976M12.25 2.24976H8.75M12.25 2.24976L7.58333 6.91642M5.83333 3.41642H4.55C3.56991 3.41642 3.07986 3.41642 2.70552 3.60716C2.37623 3.77494 2.10852 4.04266 1.94074 4.37194C1.75 4.74628 1.75 5.23633 1.75 6.21642V9.94976C1.75 10.9298 1.75 11.4199 1.94074 11.7942C2.10852 12.1235 2.37623 12.3912 2.70552 12.559C3.07986 12.7498 3.56991 12.7498 4.55 12.7498H8.28333C9.26342 12.7498 9.75347 12.7498 10.1278 12.559C10.4571 12.3912 10.7248 12.1235 10.8926 11.7942C11.0833 11.4199 11.0833 10.9298 11.0833 9.94976V8.66642" stroke="#4F4F4F" stroke-width="1.67" stroke-linecap="round" stroke-linejoin="round"/>
</svg>
