<svg width="20" height="20" viewBox="0 0 20 20" fill="none" xmlns="http://www.w3.org/2000/svg">
<g id="truck-01">
<path id="Icon" d="M11.666 5.83331H13.6137C13.8176 5.83331 13.9195 5.83331 14.0154 5.85634C14.1004 5.87675 14.1817 5.91042 14.2563 5.95611C14.3404 6.00765 14.4124 6.07971 14.5565 6.22384L17.9422 9.60946C18.0863 9.75358 18.1583 9.82564 18.2099 9.90974C18.2556 9.9843 18.2892 10.0656 18.3097 10.1506C18.3327 10.2465 18.3327 10.3484 18.3327 10.5523V12.9166C18.3327 13.3049 18.3327 13.4991 18.2692 13.6522C18.1847 13.8564 18.0224 14.0186 17.8183 14.1032C17.6651 14.1666 17.471 14.1666 17.0827 14.1666M12.916 14.1666H11.666M11.666 14.1666V5.99998C11.666 5.06656 11.666 4.59985 11.4844 4.24333C11.3246 3.92973 11.0696 3.67476 10.756 3.51497C10.3995 3.33331 9.93277 3.33331 8.99935 3.33331H4.33268C3.39926 3.33331 2.93255 3.33331 2.57603 3.51497C2.26243 3.67476 2.00746 3.92973 1.84767 4.24333C1.66602 4.59985 1.66602 5.06656 1.66602 5.99998V12.5C1.66602 13.4205 2.41221 14.1666 3.33268 14.1666M11.666 14.1666H8.33268M8.33268 14.1666C8.33268 15.5474 7.21339 16.6666 5.83268 16.6666C4.45197 16.6666 3.33268 15.5474 3.33268 14.1666M8.33268 14.1666C8.33268 12.7859 7.21339 11.6666 5.83268 11.6666C4.45197 11.6666 3.33268 12.7859 3.33268 14.1666M17.0827 14.5833C17.0827 15.7339 16.1499 16.6666 14.9993 16.6666C13.8488 16.6666 12.916 15.7339 12.916 14.5833C12.916 13.4327 13.8488 12.5 14.9993 12.5C16.1499 12.5 17.0827 13.4327 17.0827 14.5833Z" stroke="#15B377" stroke-width="1.66667" stroke-linecap="round" stroke-linejoin="round"/>
</g>
</svg>
