<svg width="40" height="40" viewBox="0 0 40 40" fill="none" xmlns="http://www.w3.org/2000/svg">
<path d="M23.332 11.6665H27.2275C27.6351 11.6665 27.8389 11.6665 28.0308 11.7126C28.2008 11.7534 28.3634 11.8207 28.5125 11.9121C28.6807 12.0152 28.8248 12.1593 29.1131 12.4476L35.8843 19.2188C36.1726 19.507 36.3167 19.6512 36.4198 19.8194C36.5111 19.9685 36.5785 20.1311 36.6193 20.3011C36.6654 20.4929 36.6654 20.6968 36.6654 21.1044V25.8332C36.6654 26.6097 36.6654 26.998 36.5385 27.3043C36.3693 27.7127 36.0449 28.0371 35.6365 28.2063C35.3302 28.3332 34.9419 28.3332 34.1654 28.3332M25.832 28.3332H23.332M23.332 28.3332V11.9998C23.332 10.133 23.332 9.19957 22.9687 8.48654C22.6491 7.85933 22.1392 7.34939 21.512 7.02982C20.799 6.6665 19.8655 6.6665 17.9987 6.6665H8.66537C6.79852 6.6665 5.8651 6.6665 5.15206 7.02982C4.52486 7.34939 4.01492 7.85933 3.69534 8.48654C3.33203 9.19957 3.33203 10.133 3.33203 11.9998V24.9998C3.33203 26.8408 4.82442 28.3332 6.66536 28.3332M23.332 28.3332H16.6654M16.6654 28.3332C16.6654 31.0946 14.4268 33.3332 11.6654 33.3332C8.90394 33.3332 6.66536 31.0946 6.66536 28.3332M16.6654 28.3332C16.6654 25.5717 14.4268 23.3332 11.6654 23.3332C8.90394 23.3332 6.66536 25.5717 6.66536 28.3332M34.1654 29.1665C34.1654 31.4677 32.2999 33.3332 29.9987 33.3332C27.6975 33.3332 25.832 31.4677 25.832 29.1665C25.832 26.8653 27.6975 24.9998 29.9987 24.9998C32.2999 24.9998 34.1654 26.8653 34.1654 29.1665Z" stroke="#15B377" stroke-width="2" stroke-linecap="round" stroke-linejoin="round"/>
</svg>
