<svg width="18" height="20" viewBox="0 0 18 20" fill="none" xmlns="http://www.w3.org/2000/svg">
<path d="M12.3333 4.92708V4.26042C12.3333 3.327 12.3333 2.86029 12.1517 2.50377C11.9919 2.19016 11.7369 1.93519 11.4233 1.77541C11.0668 1.59375 10.6001 1.59375 9.66667 1.59375H8.33333C7.39991 1.59375 6.9332 1.59375 6.57668 1.77541C6.26308 1.93519 6.00811 2.19016 5.84832 2.50377C5.66667 2.86029 5.66667 3.327 5.66667 4.26042V4.92708M7.33333 9.51042V13.6771M10.6667 9.51042V13.6771M1.5 4.92708H16.5M14.8333 4.92708V14.2604C14.8333 15.6605 14.8333 16.3606 14.5608 16.8954C14.3212 17.3658 13.9387 17.7483 13.4683 17.9879C12.9335 18.2604 12.2335 18.2604 10.8333 18.2604H7.16667C5.76654 18.2604 5.06647 18.2604 4.53169 17.9879C4.06129 17.7483 3.67883 17.3658 3.43915 16.8954C3.16667 16.3606 3.16667 15.6605 3.16667 14.2604V4.92708" stroke="#F04438" stroke-width="1.66667" stroke-linecap="round" stroke-linejoin="round"/>
</svg>
