<svg width="96" height="96" viewBox="0 0 96 96" fill="none" xmlns="http://www.w3.org/2000/svg">
<path d="M81.9999 29.1113L47.9999 48.0002M47.9999 48.0002L13.9999 29.1113M47.9999 48.0002L48 86.0003M84 50.0003L84 31.7661C84 30.3955 84 29.7103 83.7981 29.0991C83.6194 28.5584 83.3274 28.062 82.9415 27.6433C82.5053 27.1699 81.9062 26.8371 80.7081 26.1715L51.1081 9.72707C49.9737 9.09684 49.4065 8.78172 48.8058 8.65818C48.2742 8.54884 47.7258 8.54884 47.1942 8.65818C46.5935 8.78172 46.0263 9.09685 44.8919 9.72707L15.2919 26.1715C14.0938 26.8371 13.4947 27.1699 13.0585 27.6433C12.6726 28.062 12.3806 28.5584 12.2019 29.0991C12 29.7103 12 30.3956 12 31.7661V64.2346C12 65.6051 12 66.2904 12.2019 66.9016C12.3806 67.4423 12.6726 67.9386 13.0585 68.3574C13.4947 68.8307 14.0938 69.1636 15.2919 69.8292L44.8919 86.2736C46.0263 86.9038 46.5935 87.219 47.1942 87.3425C47.7258 87.4518 48.2742 87.4518 48.8058 87.3425C49.4065 87.219 49.9737 86.9038 51.1081 86.2736L52 85.7781M30 18.0003L66 38.0003M66 64.0003L86 84.0003M86 64.0003L66 84.0003" stroke="#121212" stroke-width="4" stroke-linecap="round" stroke-linejoin="round"/>
</svg>

