<svg width="20" height="21" viewBox="0 0 20 21" fill="none" xmlns="http://www.w3.org/2000/svg">
<g id="dots-grid">
<g id="Icon">
<path d="M9.99983 5.53141C10.4601 5.53141 10.8332 5.15832 10.8332 4.69808C10.8332 4.23784 10.4601 3.86475 9.99983 3.86475C9.53959 3.86475 9.16649 4.23784 9.16649 4.69808C9.16649 5.15832 9.53959 5.53141 9.99983 5.53141Z" stroke="#4F4F4F" stroke-width="1.35" stroke-linecap="round" stroke-linejoin="round"/>
<path d="M9.99983 11.3647C10.4601 11.3647 10.8332 10.9916 10.8332 10.5314C10.8332 10.0712 10.4601 9.69808 9.99983 9.69808C9.53959 9.69808 9.16649 10.0712 9.16649 10.5314C9.16649 10.9916 9.53959 11.3647 9.99983 11.3647Z" stroke="#4F4F4F" stroke-width="1.35" stroke-linecap="round" stroke-linejoin="round"/>
<path d="M9.99983 17.1981C10.4601 17.1981 10.8332 16.825 10.8332 16.3647C10.8332 15.9045 10.4601 15.5314 9.99983 15.5314C9.53959 15.5314 9.16649 15.9045 9.16649 16.3647C9.16649 16.825 9.53959 17.1981 9.99983 17.1981Z" stroke="#4F4F4F" stroke-width="1.35" stroke-linecap="round" stroke-linejoin="round"/>
<path d="M15.8332 5.53141C16.2934 5.53141 16.6665 5.15832 16.6665 4.69808C16.6665 4.23784 16.2934 3.86475 15.8332 3.86475C15.3729 3.86475 14.9998 4.23784 14.9998 4.69808C14.9998 5.15832 15.3729 5.53141 15.8332 5.53141Z" stroke="#4F4F4F" stroke-width="1.35" stroke-linecap="round" stroke-linejoin="round"/>
<path d="M15.8332 11.3647C16.2934 11.3647 16.6665 10.9916 16.6665 10.5314C16.6665 10.0712 16.2934 9.69808 15.8332 9.69808C15.3729 9.69808 14.9998 10.0712 14.9998 10.5314C14.9998 10.9916 15.3729 11.3647 15.8332 11.3647Z" stroke="#4F4F4F" stroke-width="1.35" stroke-linecap="round" stroke-linejoin="round"/>
<path d="M15.8332 17.1981C16.2934 17.1981 16.6665 16.825 16.6665 16.3647C16.6665 15.9045 16.2934 15.5314 15.8332 15.5314C15.3729 15.5314 14.9998 15.9045 14.9998 16.3647C14.9998 16.825 15.3729 17.1981 15.8332 17.1981Z" stroke="#4F4F4F" stroke-width="1.35" stroke-linecap="round" stroke-linejoin="round"/>
<path d="M4.16649 5.53141C4.62673 5.53141 4.99983 5.15832 4.99983 4.69808C4.99983 4.23784 4.62673 3.86475 4.16649 3.86475C3.70626 3.86475 3.33316 4.23784 3.33316 4.69808C3.33316 5.15832 3.70626 5.53141 4.16649 5.53141Z" stroke="#4F4F4F" stroke-width="1.35" stroke-linecap="round" stroke-linejoin="round"/>
<path d="M4.16649 11.3647C4.62673 11.3647 4.99983 10.9916 4.99983 10.5314C4.99983 10.0712 4.62673 9.69808 4.16649 9.69808C3.70626 9.69808 3.33316 10.0712 3.33316 10.5314C3.33316 10.9916 3.70626 11.3647 4.16649 11.3647Z" stroke="#4F4F4F" stroke-width="1.35" stroke-linecap="round" stroke-linejoin="round"/>
<path d="M4.16649 17.1981C4.62673 17.1981 4.99983 16.825 4.99983 16.3647C4.99983 15.9045 4.62673 15.5314 4.16649 15.5314C3.70626 15.5314 3.33316 15.9045 3.33316 16.3647C3.33316 16.825 3.70626 17.1981 4.16649 17.1981Z" stroke="#4F4F4F" stroke-width="1.35" stroke-linecap="round" stroke-linejoin="round"/>
</g>
</g>
</svg>
