<svg width="20" height="20" viewBox="0 0 20 20" fill="none" xmlns="http://www.w3.org/2000/svg">
<path d="M17.0833 6.06429L9.99997 9.99948M9.99997 9.99948L2.91664 6.06429M9.99997 9.99948L10 17.9162M17.5 13.3816V6.61737C17.5 6.33184 17.5 6.18907 17.4579 6.06174C17.4207 5.94909 17.3599 5.84569 17.2795 5.75845C17.1886 5.65983 17.0638 5.5905 16.8142 5.45183L10.6475 2.0259C10.4112 1.8946 10.293 1.82896 10.1679 1.80322C10.0571 1.78044 9.94288 1.78044 9.83213 1.80322C9.70698 1.82896 9.58881 1.8946 9.35248 2.0259L3.18581 5.45183C2.93621 5.5905 2.8114 5.65983 2.72053 5.75845C2.64013 5.84569 2.57929 5.94909 2.54207 6.06174C2.5 6.18907 2.5 6.33184 2.5 6.61737V13.3816C2.5 13.6672 2.5 13.8099 2.54207 13.9373C2.57929 14.0499 2.64013 14.1533 2.72053 14.2406C2.8114 14.3392 2.93621 14.4085 3.18581 14.5472L9.35248 17.9731C9.58881 18.1044 9.70698 18.17 9.83213 18.1958C9.94288 18.2186 10.0571 18.2186 10.1679 18.1958C10.293 18.17 10.4112 18.1044 10.6475 17.9731L16.8142 14.5472C17.0638 14.4085 17.1886 14.3392 17.2795 14.2406C17.3599 14.1533 17.4207 14.0499 17.4579 13.9373C17.5 13.8099 17.5 13.6672 17.5 13.3816Z" stroke="#4F4F4F" stroke-width="1.35273" stroke-linecap="round" stroke-linejoin="round"/>
</svg>
