<svg width="20" height="20" viewBox="0 0 20 20" fill="none" xmlns="http://www.w3.org/2000/svg">
<path d="M2.08389 10.8337H7.08389M12.9172 10.8337H17.9172M10.0006 5.83366V17.5003M10.0006 5.83366C11.1512 5.83366 12.0839 4.90092 12.0839 3.75032M10.0006 5.83366C8.84997 5.83366 7.91723 4.90092 7.91723 3.75033M3.33389 17.5003L16.6672 17.5003M3.33389 3.75033L7.91723 3.75033M7.91723 3.75033C7.91723 2.59973 8.84997 1.66699 10.0006 1.66699C11.1512 1.66699 12.0839 2.59973 12.0839 3.75032M12.0839 3.75032L16.6672 3.75033M7.40092 11.9473C7.06701 13.2258 5.93231 14.167 4.58389 14.167C3.23547 14.167 2.10077 13.2258 1.76686 11.9473C1.73958 11.8428 1.72594 11.7906 1.72462 11.5819C1.72381 11.4539 1.77136 11.159 1.81232 11.0378C1.87915 10.84 1.95148 10.7284 2.09615 10.5052L4.58389 6.66699L7.07163 10.5052C7.2163 10.7284 7.28864 10.84 7.35546 11.0378C7.39642 11.159 7.44397 11.4539 7.44316 11.5819C7.44185 11.7906 7.42821 11.8428 7.40092 11.9473ZM18.2343 11.9473C17.9003 13.2258 16.7656 14.167 15.4172 14.167C14.0688 14.167 12.9341 13.2258 12.6002 11.9473C12.5729 11.8428 12.5593 11.7906 12.558 11.5819C12.5571 11.4539 12.6047 11.159 12.6457 11.0378C12.7125 10.84 12.7848 10.7284 12.9295 10.5052L15.4172 6.66699L17.905 10.5052C18.0496 10.7284 18.122 10.84 18.1888 11.0378C18.2298 11.159 18.2773 11.4539 18.2765 11.5819C18.2752 11.7906 18.2615 11.8428 18.2343 11.9473Z" stroke="#4F4F4F" stroke-width="1.35" stroke-linecap="round" stroke-linejoin="round"/>
</svg>
