<svg width="15" height="13" viewBox="0 0 15 13" fill="none" xmlns="http://www.w3.org/2000/svg">
<path d="M7.55863 5.9778V8.31113M7.55863 9.9778V9.97113M6.98337 1.62661L1.31312 11.3075C1.05281 11.752 1.37332 12.3111 1.88838 12.3111L13.2289 12.3111C13.7439 12.3111 14.0644 11.752 13.8041 11.3075L8.13389 1.62661C7.87638 1.18696 7.24088 1.18696 6.98337 1.62661ZM7.7253 9.9778C7.7253 10.0698 7.65068 10.1445 7.55863 10.1445C7.46658 10.1445 7.39196 10.0698 7.39196 9.9778C7.39196 9.88575 7.46658 9.81113 7.55863 9.81113C7.65068 9.81113 7.7253 9.88575 7.7253 9.9778Z" stroke="white" stroke-width="0.916364" stroke-linecap="round"/>
</svg>
