<svg width="25" height="25" viewBox="0 0 25 25" fill="none" xmlns="http://www.w3.org/2000/svg">
<g id="layout-alt-03">
<path id="Icon" d="M18.2292 17.7083H6.77083M18.2292 13.5417H6.77083M3.125 9.375H21.875M8.125 3.125H16.875C18.6252 3.125 19.5002 3.125 20.1687 3.4656C20.7567 3.76521 21.2348 4.24327 21.5344 4.83128C21.875 5.49975 21.875 6.37484 21.875 8.125V16.875C21.875 18.6252 21.875 19.5002 21.5344 20.1687C21.2348 20.7567 20.7567 21.2348 20.1687 21.5344C19.5002 21.875 18.6252 21.875 16.875 21.875H8.125C6.37484 21.875 5.49975 21.875 4.83128 21.5344C4.24327 21.2348 3.76521 20.7567 3.4656 20.1687C3.125 19.5002 3.125 18.6252 3.125 16.875V8.125C3.125 6.37484 3.125 5.49975 3.4656 4.83128C3.76521 4.24327 4.24327 3.76521 4.83128 3.4656C5.49975 3.125 6.37484 3.125 8.125 3.125Z" stroke="#3D3D3D" stroke-width="2" stroke-linecap="round" stroke-linejoin="round"/>
</g>
</svg>
