<svg width="15" height="11" viewBox="0 0 15 11" fill="none" xmlns="http://www.w3.org/2000/svg">
<path d="M3.19875 1.11719C2.08281 2.23313 1.39258 3.7748 1.39258 5.47768C1.39258 7.18056 2.08281 8.72222 3.19875 9.83817M5.13675 3.05518C4.51678 3.67515 4.13332 4.53164 4.13332 5.47768C4.13332 6.42372 4.51678 7.2802 5.13675 7.90018M9.98174 7.90018C10.6017 7.2802 10.9852 6.42372 10.9852 5.47768C10.9852 4.53164 10.6017 3.67515 9.98174 3.05518M11.9197 9.83817C13.0357 8.72222 13.7259 7.18056 13.7259 5.47768C13.7259 3.7748 13.0357 2.23313 11.9197 1.11719M8.05924 5.47719C8.05924 5.75333 7.83539 5.97719 7.55924 5.97719C7.2831 5.97719 7.05924 5.75333 7.05924 5.47719C7.05924 5.20105 7.2831 4.97719 7.55924 4.97719C7.83539 4.97719 8.05924 5.20105 8.05924 5.47719Z" stroke="white" stroke-width="0.916364" stroke-linecap="round" stroke-linejoin="round"/>
</svg>
