<svg width="20" height="16" viewBox="0 0 20 16" fill="none" xmlns="http://www.w3.org/2000/svg">
<path d="M8 12H12M2.71429 12H2C1.44772 12 1 11.5523 1 11V6.30278C1 6.10535 1.05844 5.91234 1.16795 5.74808L2.70313 3.4453C2.8886 3.1671 3.20083 3 3.53518 3H6C6.55228 3 7 3.44772 7 4V10M17 12H18C18.5523 12 19 11.5523 19 11V2C19 1.44772 18.5523 1 18 1H8C7.44772 1 7 1.44772 7 2V5M8 12.5C8 13.8807 6.88071 15 5.5 15C4.11929 15 3 13.8807 3 12.5C3 11.1193 4.11929 10 5.5 10C6.88071 10 8 11.1193 8 12.5ZM17 12.5C17 13.8807 15.8807 15 14.5 15C13.1193 15 12 13.8807 12 12.5C12 11.1193 13.1193 10 14.5 10C15.8807 10 17 11.1193 17 12.5Z" stroke="#6D6D6D" stroke-width="2" stroke-linejoin="round"/>
</svg>
