<svg width="24" height="24" viewBox="0 0 24 24" fill="none" xmlns="http://www.w3.org/2000/svg">
<path d="M20.5 7.27442L12 11.9966M12 11.9966L3.49997 7.27442M12 11.9966L12 21.4967M21 16.0552V7.93811C21 7.59547 21 7.42415 20.9495 7.27135C20.9049 7.13617 20.8318 7.01209 20.7354 6.9074C20.6263 6.78906 20.4766 6.70586 20.177 6.53946L12.777 2.42835C12.4934 2.27079 12.3516 2.19201 12.2015 2.16113C12.0685 2.13379 11.9315 2.13379 11.7986 2.16113C11.6484 2.19201 11.5066 2.27079 11.223 2.42835L3.82297 6.53946C3.52345 6.70586 3.37369 6.78907 3.26463 6.9074C3.16816 7.01209 3.09515 7.13617 3.05048 7.27135C3 7.42415 3 7.59547 3 7.93811V16.0552C3 16.3979 3 16.5692 3.05048 16.722C3.09515 16.8572 3.16816 16.9812 3.26463 17.0859C3.37369 17.2043 3.52345 17.2875 3.82297 17.4539L11.223 21.565C11.5066 21.7225 11.6484 21.8013 11.7986 21.8322C11.9315 21.8595 12.0685 21.8595 12.2015 21.8322C12.3516 21.8013 12.4934 21.7225 12.777 21.565L20.177 17.4539C20.4766 17.2875 20.6263 17.2043 20.7354 17.0859C20.8318 16.9812 20.9049 16.8572 20.9495 16.722C21 16.5692 21 16.3979 21 16.0552Z" stroke="#6D6D6D" stroke-width="2" stroke-linecap="round" stroke-linejoin="round"/>
<path d="M16.5 9.5L7.5 4.5" stroke="#6D6D6D" stroke-width="2" stroke-linecap="round" stroke-linejoin="round"/>
</svg>
