<svg width="60" height="60" viewBox="0 0 60 60" fill="none" xmlns="http://www.w3.org/2000/svg">
<rect width="59.8561" height="59.8561" rx="10.6886" fill="#136A83"/>
<path d="M42.2826 42.9939H30.9493M16.0742 43.7023L23.9357 40.6786C24.4385 40.4852 24.6899 40.3885 24.9252 40.2623C25.1341 40.1501 25.3333 40.0207 25.5206 39.8753C25.7315 39.7116 25.922 39.5211 26.3029 39.1402L42.2826 23.1606C43.8474 21.5958 43.8474 19.0587 42.2826 17.4939C40.7178 15.9291 38.1807 15.9291 36.6159 17.4939L20.6363 33.4735C20.2553 33.8545 20.0649 34.0449 19.9012 34.2559C19.7558 34.4432 19.6264 34.6424 19.5142 34.8513C19.388 35.0865 19.2913 35.338 19.0979 35.8408L16.0742 43.7023ZM16.0742 43.7023L18.9899 36.1216C19.1985 35.5791 19.3029 35.3079 19.4818 35.1837C19.6382 35.0751 19.8316 35.034 20.0186 35.0697C20.2326 35.1106 20.4381 35.3161 20.8491 35.7271L24.0494 38.9274C24.4604 39.3384 24.6659 39.5439 24.7068 39.7579C24.7425 39.9449 24.7014 40.1384 24.5928 40.2947C24.4686 40.4737 24.1974 40.578 23.6549 40.7866L16.0742 43.7023Z" stroke="#D1F8FC" stroke-width="2.13772" stroke-linecap="round" stroke-linejoin="round"/>
</svg>
