<svg width="61" height="60" viewBox="0 0 61 60" fill="none" xmlns="http://www.w3.org/2000/svg">
<rect x="0.667969" width="59.8561" height="59.8561" rx="10.6886" fill="#136A83"/>
<path d="M33.9961 25.9948H30.2461C29.0035 25.9948 27.9961 26.9462 27.9961 28.1198C27.9961 29.2934 29.0035 30.2448 30.2461 30.2448H31.7461C32.9887 30.2448 33.9961 31.1962 33.9961 32.3698C33.9961 33.5434 32.9887 34.4948 31.7461 34.4948H27.9961M30.9961 24.5781V25.9948M30.9961 34.4948V35.9115M39.9961 30.2448H40.0111M21.9961 30.2448H22.0111M15.9961 24.8615L15.9961 35.6281C15.9961 37.2149 15.9961 38.0083 16.3231 38.6144C16.6107 39.1476 17.0696 39.581 17.6341 39.8526C18.2759 40.1615 19.1159 40.1615 20.7961 40.1615L41.1961 40.1615C42.8763 40.1615 43.7163 40.1615 44.3581 39.8526C44.9226 39.581 45.3815 39.1476 45.6691 38.6144C45.9961 38.0083 45.9961 37.2149 45.9961 35.6281V24.8615C45.9961 23.2746 45.9961 22.4812 45.6691 21.8752C45.3815 21.342 44.9226 20.9086 44.3581 20.6369C43.7163 20.3281 42.8763 20.3281 41.1961 20.3281L20.7961 20.3281C19.1159 20.3281 18.2759 20.3281 17.6341 20.6369C17.0696 20.9086 16.6107 21.342 16.3231 21.8752C15.9961 22.4812 15.9961 23.2746 15.9961 24.8615ZM40.7461 30.2448C40.7461 30.636 40.4103 30.9531 39.9961 30.9531C39.5819 30.9531 39.2461 30.636 39.2461 30.2448C39.2461 29.8536 39.5819 29.5365 39.9961 29.5365C40.4103 29.5365 40.7461 29.8536 40.7461 30.2448ZM22.7461 30.2448C22.7461 30.636 22.4103 30.9531 21.9961 30.9531C21.5819 30.9531 21.2461 30.636 21.2461 30.2448C21.2461 29.8536 21.5819 29.5365 21.9961 29.5365C22.4103 29.5365 22.7461 29.8536 22.7461 30.2448Z" stroke="#D1F8FC" stroke-width="2.13772" stroke-linecap="round" stroke-linejoin="round"/>
</svg>
