<svg width="61" height="60" viewBox="0 0 61 60" fill="none" xmlns="http://www.w3.org/2000/svg">
<rect x="0.332031" width="59.8561" height="59.8561" rx="10.6886" fill="#136A83"/>
<path d="M42.6133 27.4115H17.1133M42.6133 30.9531V25.7115C42.6133 23.3312 42.6133 22.1411 42.1501 21.232C41.7426 20.4323 41.0924 19.7821 40.2927 19.3747C39.3836 18.9115 38.1935 18.9115 35.8133 18.9115H23.9133C21.5331 18.9115 20.3429 18.9115 19.4338 19.3747C18.6341 19.7821 17.984 20.4323 17.5765 21.232C17.1133 22.1411 17.1133 23.3312 17.1133 25.7115V37.6115C17.1133 39.9917 17.1133 41.1818 17.5765 42.0909C17.984 42.8906 18.6341 43.5408 19.4338 43.9482C20.3429 44.4115 21.5331 44.4115 23.9133 44.4115H29.8633M35.5299 16.0781V21.7448M24.1966 16.0781V21.7448M33.4049 40.1615L36.2383 42.9948L42.6133 36.6198" stroke="#D1F8FC" stroke-width="2.13772" stroke-linecap="round" stroke-linejoin="round"/>
</svg>
