<svg width="22" height="22" viewBox="0 0 22 22" fill="none" xmlns="http://www.w3.org/2000/svg">
<g clip-path="url(#clip0_394_6789)">
<path d="M21.7862 11.2547C21.7862 10.5069 21.7256 9.75515 21.5963 9.01953H11.2207V13.2554H17.1623C16.9157 14.6216 16.1235 15.8301 14.9635 16.5981V19.3466H18.5082C20.5898 17.4307 21.7862 14.6014 21.7862 11.2547Z" fill="#4285F4"/>
<path d="M11.2195 22.0015C14.1863 22.0015 16.6882 21.0274 18.5111 19.346L14.9664 16.5975C13.9801 17.2685 12.7069 17.6484 11.2236 17.6484C8.35382 17.6484 5.92061 15.7124 5.04756 13.1094H1.38965V15.9427C3.257 19.6572 7.06042 22.0015 11.2195 22.0015Z" fill="#34A853"/>
<path d="M5.0447 13.1075C4.58392 11.7414 4.58392 10.262 5.0447 8.89586V6.0625H1.39083C-0.169339 9.17071 -0.169339 12.8327 1.39083 15.9409L5.0447 13.1075Z" fill="#FBBC04"/>
<path d="M11.2195 4.35386C12.7878 4.3296 14.3035 4.91972 15.4393 6.00295L18.5798 2.8624C16.5912 0.995046 13.9518 -0.0315938 11.2195 0.000741277C7.06042 0.000741277 3.257 2.34504 1.38965 6.06357L5.04352 8.89694C5.91252 6.28992 8.34978 4.35386 11.2195 4.35386Z" fill="#EA4335"/>
</g>
<defs>
<clipPath id="clip0_394_6789">
<rect width="22" height="22" fill="white"/>
</clipPath>
</defs>
</svg>
