<svg width="24" height="25" viewBox="0 0 24 25" fill="none" xmlns="http://www.w3.org/2000/svg">
<path d="M16.5 2.30859H7.5C6.10807 2.31008 4.77358 2.86368 3.78933 3.84793C2.80509 4.83217 2.25149 6.16666 2.25 7.55859V16.5586C2.25149 17.9505 2.80509 19.285 3.78933 20.2693C4.77358 21.2535 6.10807 21.8071 7.5 21.8086H16.5C17.8919 21.8071 19.2264 21.2535 20.2107 20.2693C21.1949 19.285 21.7485 17.9505 21.75 16.5586V7.55859C21.7485 6.16666 21.1949 4.83217 20.2107 3.84793C19.2264 2.86368 17.8919 2.31008 16.5 2.30859ZM12 16.5586C11.11 16.5586 10.24 16.2947 9.49993 15.8002C8.75991 15.3057 8.18314 14.6029 7.84254 13.7807C7.50195 12.9584 7.41283 12.0536 7.58647 11.1807C7.7601 10.3078 8.18868 9.50595 8.81802 8.87661C9.44736 8.24728 10.2492 7.81869 11.1221 7.64506C11.995 7.47143 12.8998 7.56054 13.7221 7.90114C14.5443 8.24173 15.2471 8.81851 15.7416 9.55853C16.2361 10.2985 16.5 11.1686 16.5 12.0586C16.4988 13.2517 16.0243 14.3956 15.1806 15.2392C14.337 16.0828 13.1931 16.5574 12 16.5586ZM17.625 7.55859C17.4025 7.55859 17.185 7.49261 17 7.369C16.815 7.24538 16.6708 7.06968 16.5856 6.86411C16.5005 6.65855 16.4782 6.43235 16.5216 6.21412C16.565 5.99589 16.6722 5.79543 16.8295 5.6381C16.9868 5.48076 17.1873 5.37362 17.4055 5.33021C17.6238 5.2868 17.85 5.30908 18.0555 5.39423C18.2611 5.47938 18.4368 5.62357 18.5604 5.80858C18.684 5.99358 18.75 6.21109 18.75 6.43359C18.75 6.73196 18.6315 7.01811 18.4205 7.22909C18.2095 7.44007 17.9234 7.55859 17.625 7.55859ZM15 12.0586C15 12.6519 14.8241 13.232 14.4944 13.7253C14.1648 14.2187 13.6962 14.6032 13.1481 14.8302C12.5999 15.0573 11.9967 15.1167 11.4147 15.0009C10.8328 14.8852 10.2982 14.5995 9.87868 14.1799C9.45912 13.7604 9.1734 13.2258 9.05764 12.6439C8.94189 12.0619 9.0013 11.4587 9.22836 10.9105C9.45542 10.3624 9.83994 9.89383 10.3333 9.56419C10.8266 9.23454 11.4067 9.05859 12 9.05859C12.7956 9.05859 13.5587 9.37466 14.1213 9.93727C14.6839 10.4999 15 11.2629 15 12.0586Z" fill="white"/>
</svg>
