<svg width="24" height="25" viewBox="0 0 24 25" fill="none" xmlns="http://www.w3.org/2000/svg">
<path d="M4 7.05859C4 5.40159 5.343 4.05859 7 4.05859H17C18.657 4.05859 20 5.40159 20 7.05859V17.0586C20 18.7156 18.657 20.0586 17 20.0586H7C5.343 20.0586 4 18.7156 4 17.0586V7.05859ZM8.85 17.4516V10.2276H6.434V17.4516H8.85ZM7.642 9.24059C8.484 9.24059 9.009 8.68659 9.009 7.99259C8.993 7.28359 8.484 6.74459 7.658 6.74459C6.831 6.74459 6.291 7.28359 6.291 7.99259C6.291 8.68659 6.815 9.24059 7.626 9.24059H7.642ZM12.604 17.4516V13.4176C12.604 13.2016 12.62 12.9866 12.683 12.8316C12.858 12.4006 13.256 11.9536 13.923 11.9536C14.798 11.9536 15.148 12.6156 15.148 13.5876V17.4516H17.564V13.3096C17.564 11.0906 16.372 10.0576 14.782 10.0576C13.5 10.0576 12.925 10.7576 12.604 11.2506V10.2276H10.187C10.219 10.9026 10.188 17.4106 10.187 17.4526L12.604 17.4516Z" fill="white"/>
</svg>
