<svg width="160" height="67" viewBox="0 0 160 67" fill="none" xmlns="http://www.w3.org/2000/svg">
<g clip-path="url(#clip0_325_11120)">
<path d="M47.965 0H18.7C8.37225 0 0 8.33905 0 18.6258V47.7748C0 58.0615 8.37225 66.4006 18.7 66.4006H47.965C58.2927 66.4006 66.665 58.0615 66.665 47.7748V18.6258C66.665 8.33905 58.2927 0 47.965 0Z" fill="url(#paint0_linear_325_11120)"/>
<path fill-rule="evenodd" clip-rule="evenodd" d="M25.8647 23.8134C29.6381 18.3011 38.2484 18.4571 41.748 24.2815L46.3058 31.8676C46.3058 31.8676 46.3058 31.8676 46.3058 31.8676C49.9017 37.8517 45.4057 45.3316 38.214 45.3316H29.0976C21.9052 45.3316 17.4099 37.8517 21.0057 31.8677C21.0057 31.8677 21.0057 31.8677 21.0057 31.8677L25.8448 23.8134H25.8647ZM40.0601 25.2175C37.2143 20.4812 30.0979 20.4812 27.2521 25.2176L26.9708 25.6857H26.9702L22.6936 32.8037C19.8478 37.5394 23.4053 43.4593 29.0976 43.4593H38.214C43.9057 43.4593 47.4638 37.5395 44.618 32.8037L40.0601 25.2175C40.0601 25.2176 40.0601 25.2175 40.0601 25.2175Z" fill="white"/>
<path fill-rule="evenodd" clip-rule="evenodd" d="M48.0159 16.3754C48.0159 16.3754 48.0159 16.3754 48.0159 16.3754L57.0479 31.7466C63.2904 42.3709 55.3407 55.5473 42.6872 55.5473H24.6239C11.9705 55.5473 4.02077 42.3716 10.2632 31.7467L17.9255 18.7065L19.2945 16.3754C25.6202 5.60922 41.6903 5.60924 48.0159 16.3754ZM22.1706 17.8094C27.3001 9.25853 40.1372 9.29394 45.2029 17.9157L54.2349 33.2869C59.2545 41.8301 52.862 52.4254 42.6872 52.4254H24.6239C14.4491 52.4254 8.05658 41.8307 13.0762 33.2869C13.0762 33.2869 13.0762 33.2869 13.0762 33.2869L22.1706 17.8094Z" fill="white"/>
<path d="M54.8999 32.467L44.0605 26.3311C43.571 26.054 43.5613 25.3442 44.0431 25.0534L54.7107 18.6208C55.1931 18.3299 55.8053 18.6763 55.8131 19.2443L55.9849 31.8128C55.9926 32.3807 55.3901 32.7441 54.8999 32.467Z" fill="white"/>
<path d="M37.4253 60.5633L26.5859 54.7063C26.0964 54.4418 26.0867 53.7643 26.5685 53.4867L37.2361 47.3465C37.7185 47.0688 38.3307 47.3995 38.3385 47.9416L38.5102 59.9388C38.518 60.481 37.9155 60.8278 37.4253 60.5633Z" fill="white"/>
<path d="M16.7144 36.299L5.87496 30.1632C5.38546 29.886 5.37577 29.1762 5.85753 28.8854L16.5252 22.4528C17.0076 22.162 17.6198 22.5084 17.6275 23.0763L17.7993 35.6448C17.8071 36.2128 17.2045 36.5761 16.7144 36.299Z" fill="white"/>
<path d="M28.1559 37.5199L29.1665 36.294C30.0739 37.2473 31.5593 38.1425 33.4985 38.1425C35.9535 38.1425 36.7372 36.8973 36.7372 35.9048C36.7372 32.5578 28.5885 34.4063 28.5885 29.7754C28.5885 27.635 30.6103 26.1758 33.3126 26.1758C35.4171 26.1758 37.0467 26.8377 38.2015 27.9856L37.1698 29.1728C36.138 28.1022 34.6942 27.6162 33.1883 27.6162C31.5382 27.6162 30.3623 28.4528 30.3623 29.6787C30.3623 32.5977 38.511 30.9239 38.511 35.7694C38.511 37.6571 37.1493 39.5836 33.4363 39.5836C31.0435 39.5836 29.2902 38.7277 28.1553 37.5211L28.1559 37.5199Z" fill="white"/>
</g>
<path d="M80.4739 29.6168C79.7303 29.6168 79.0156 29.5018 78.3297 29.272C77.6502 29.0357 77.0541 28.7006 76.5413 28.2664C76.0285 27.8259 75.6599 27.2991 75.4355 26.6862L77.6374 25.8817C77.7272 26.1371 77.9098 26.3701 78.1855 26.5808C78.4611 26.7915 78.7976 26.9607 79.1951 27.0884C79.5925 27.2161 80.0188 27.28 80.4739 27.28C80.9418 27.28 81.3777 27.2097 81.7815 27.0693C82.1918 26.9224 82.5219 26.7213 82.7719 26.4659C83.0219 26.2041 83.1469 25.9009 83.1469 25.5561C83.1469 25.2049 83.0155 24.9176 82.7527 24.6942C82.4899 24.4643 82.1533 24.2824 81.7431 24.1483C81.3328 24.0142 80.9098 23.912 80.4739 23.8418C79.5188 23.695 78.663 23.4683 77.9066 23.1618C77.1502 22.8554 76.5509 22.4308 76.1086 21.8881C75.6727 21.3454 75.4548 20.6431 75.4548 19.7812C75.4548 18.9703 75.6887 18.2616 76.1567 17.6551C76.6246 17.0485 77.24 16.5761 78.0028 16.2377C78.7656 15.8993 79.5893 15.7301 80.4739 15.7301C81.211 15.7301 81.9226 15.845 82.6084 16.0749C83.2943 16.3047 83.8937 16.6399 84.4065 17.0804C84.9257 17.521 85.2975 18.0509 85.5218 18.6702L83.3104 19.4651C83.2206 19.2097 83.0379 18.9767 82.7623 18.766C82.4867 18.5553 82.1501 18.3893 81.7527 18.268C81.3553 18.1403 80.929 18.0765 80.4739 18.0765C80.0188 18.0701 79.5861 18.1435 79.1758 18.2967C78.772 18.4436 78.4419 18.6447 78.1855 18.9001C77.9291 19.1555 77.8009 19.4492 77.8009 19.7812C77.8009 20.2089 77.9195 20.5314 78.1566 20.7484C78.4002 20.9655 78.7239 21.1251 79.1278 21.2273C79.5316 21.3231 79.9803 21.4124 80.4739 21.4955C81.3713 21.6359 82.2014 21.8721 82.9642 22.2041C83.727 22.5362 84.3392 22.9799 84.8007 23.5354C85.2622 24.0844 85.493 24.758 85.493 25.5561C85.493 26.367 85.2622 27.0788 84.8007 27.6918C84.3392 28.2983 83.727 28.7708 82.9642 29.1092C82.2014 29.4476 81.3713 29.6168 80.4739 29.6168Z" fill="#3D3D3D"/>
<path d="M93.6333 29.6168C92.723 29.6168 91.8673 29.438 91.066 29.0804C90.2648 28.7165 89.5596 28.2153 88.9507 27.5768C88.3481 26.9384 87.8738 26.201 87.5276 25.3646C87.1879 24.5218 87.018 23.6215 87.018 22.6638C87.018 21.6998 87.1879 20.7995 87.5276 19.9631C87.8738 19.1204 88.3481 18.3829 88.9507 17.7508C89.5596 17.1124 90.2648 16.6144 91.066 16.2568C91.8673 15.8929 92.723 15.7109 93.6333 15.7109C94.723 15.7109 95.7262 15.9631 96.6428 16.4675C97.5594 16.9655 98.319 17.6327 98.9216 18.4691L96.8255 19.5896C96.4473 19.1235 95.9762 18.75 95.4121 18.4691C94.8544 18.1882 94.2615 18.0477 93.6333 18.0477C93.0435 18.0477 92.4891 18.169 91.9698 18.4117C91.4506 18.6479 90.9955 18.9799 90.6045 19.4077C90.2135 19.8291 89.909 20.3207 89.6911 20.8825C89.4731 21.438 89.3641 22.0318 89.3641 22.6638C89.3641 23.3023 89.4731 23.8993 89.6911 24.4547C89.9154 25.0102 90.2231 25.5018 90.6141 25.9296C91.0051 26.351 91.457 26.683 91.9698 26.9256C92.4891 27.1618 93.0435 27.28 93.6333 27.28C94.2743 27.28 94.8704 27.1395 95.4217 26.8586C95.9794 26.5713 96.4473 26.1946 96.8255 25.7285L98.9216 26.8586C98.319 27.6886 97.5594 28.3558 96.6428 28.8602C95.7262 29.3646 94.723 29.6168 93.6333 29.6168Z" fill="#3D3D3D"/>
<path d="M100.736 29.3677V15.9599H105.899C106.63 15.9599 107.29 16.1419 107.88 16.5058C108.47 16.8698 108.938 17.3582 109.284 17.9711C109.63 18.5777 109.803 19.2512 109.803 19.9919C109.803 20.5984 109.691 21.1571 109.467 21.6678C109.249 22.1722 108.941 22.6096 108.544 22.9799C108.153 23.3502 107.701 23.6311 107.188 23.8227L110.409 29.3677H107.707L104.592 24.0334H103.082V29.3677H100.736ZM103.082 21.6966H105.63C105.964 21.6966 106.268 21.6136 106.544 21.4476C106.819 21.2816 107.04 21.0581 107.207 20.7772C107.374 20.4962 107.457 20.1834 107.457 19.8386C107.457 19.4875 107.374 19.1714 107.207 18.8905C107.04 18.6096 106.819 18.3861 106.544 18.2201C106.268 18.0541 105.964 17.9711 105.63 17.9711H103.082V21.6966Z" fill="#3D3D3D"/>
<path d="M116.372 15.9599H119.074L123.968 29.3677H121.478L120.613 26.9927H114.844L113.978 29.3677H111.488L116.372 15.9599ZM115.699 24.6559H119.747L117.718 19.1299L115.699 24.6559Z" fill="#3D3D3D"/>
<path d="M129.725 15.9599H132.426L137.321 29.3677H134.83L133.965 26.9927H128.196L127.33 29.3677H124.84L129.725 15.9599ZM129.052 24.6559H133.1L131.071 19.1299L129.052 24.6559Z" fill="#3D3D3D"/>
<path d="M138.934 29.3677V15.9599H143.741C144.472 15.9599 145.132 16.1419 145.722 16.5058C146.318 16.8698 146.789 17.3582 147.136 17.9711C147.482 18.584 147.655 19.2576 147.655 19.9919C147.655 20.7453 147.475 21.4284 147.116 22.0413C146.764 22.6479 146.289 23.1331 145.693 23.497C145.097 23.8546 144.447 24.0334 143.741 24.0334H141.28V29.3677H138.934ZM141.28 21.6966H143.491C143.825 21.6966 144.129 21.6136 144.405 21.4476C144.68 21.2816 144.898 21.0581 145.059 20.7772C145.225 20.4962 145.309 20.1834 145.309 19.8386C145.309 19.4875 145.225 19.1714 145.059 18.8905C144.898 18.6096 144.68 18.3861 144.405 18.2201C144.129 18.0541 143.825 17.9711 143.491 17.9711H141.28V21.6966Z" fill="#3D3D3D"/>
<path d="M157.231 15.9599H160L155.375 23.3247V29.3677H153.029V23.3247L148.404 15.9599H151.173L154.202 20.7772L157.231 15.9599Z" fill="#3D3D3D"/>
<path d="M87.6836 46.6043C87.5298 47.7791 86.8631 48.6985 85.6836 49.3625C84.6196 49.9499 83.2927 50.2436 81.703 50.2436C79.5748 50.2436 77.9723 49.6371 76.8954 48.424C76.1006 47.5173 75.7031 46.4064 75.7031 45.0912C75.7031 44.0824 75.9403 43.2013 76.4146 42.4479L78.7223 41.9691C78.2095 42.8374 77.9531 43.7504 77.9531 44.7081C77.9531 45.7807 78.2736 46.6043 78.9146 47.179C79.5556 47.7664 80.4851 48.06 81.703 48.06C83.6004 48.06 84.7542 47.5748 85.1644 46.6043H83.3183L84.5298 44.2867H87.7413V46.6043H87.6836ZM80.4145 54.4766C80.0299 54.4766 79.7223 54.3553 79.4915 54.1127C79.2607 53.8829 79.1453 53.5764 79.1453 53.1933C79.1453 52.823 79.2607 52.5229 79.4915 52.2931C79.7223 52.0632 80.0299 51.9483 80.4145 51.9483C80.7992 51.9483 81.1004 52.0568 81.3184 52.2739C81.5491 52.5038 81.6645 52.8102 81.6645 53.1933C81.6645 54.0489 81.2479 54.4766 80.4145 54.4766ZM83.376 54.4766C82.9914 54.4766 82.6837 54.3617 82.453 54.1319C82.2222 53.902 82.1068 53.5892 82.1068 53.1933C82.1068 52.3633 82.5299 51.9483 83.376 51.9483C83.7606 51.9483 84.0619 52.0568 84.2798 52.2739C84.5106 52.5038 84.626 52.8102 84.626 53.1933C84.626 54.0489 84.2093 54.4766 83.376 54.4766Z" fill="#3D3D3D"/>
<path d="M86.7568 46.6043V44.2867H90.1413V46.6043H86.7568Z" fill="#3D3D3D"/>
<path d="M88.9916 46.6043V44.2867H90.7223C91.2095 44.2867 91.5556 44.1845 91.7607 43.9802C91.9658 43.7632 92.0684 43.4056 92.0684 42.9076V39.3641L94.4914 38.1V43.0225C94.4914 44.1845 94.1325 45.0912 93.4145 45.7424C92.7863 46.317 91.9658 46.6043 90.953 46.6043H88.9916ZM93.0684 50.8757C92.6838 50.8757 92.3761 50.7608 92.1453 50.5309C91.9146 50.3011 91.7992 49.9882 91.7992 49.5924C91.7992 49.2221 91.9146 48.922 92.1453 48.6921C92.3761 48.4623 92.6838 48.3474 93.0684 48.3474C93.453 48.3474 93.7543 48.4559 93.9722 48.673C94.203 48.9028 94.3183 49.2093 94.3183 49.5924C94.3183 50.4479 93.9017 50.8757 93.0684 50.8757Z" fill="#3D3D3D"/>
<path d="M97.9472 46.6043V35.5333L100.37 34.25V46.6043H97.9472Z" fill="#3D3D3D"/>
<path d="M109.91 44.2867H111.641V46.6043H109.679C109.244 46.6043 108.84 46.5469 108.468 46.432C108.301 47.6578 107.808 48.6283 106.987 49.3434C106.244 49.9818 105.353 50.3011 104.314 50.3011C103.507 50.3011 102.718 50.0968 101.949 49.6881V47.5812C102.616 47.9515 103.269 48.1367 103.91 48.1367C104.615 48.1367 105.16 47.9068 105.545 47.4471C105.942 47.0002 106.141 46.3745 106.141 45.57V39.3641L107.718 38.5405L108.545 38.1V38.1191L108.564 38.1V42.9076C108.564 43.4056 108.667 43.7632 108.872 43.9802C109.077 44.1845 109.423 44.2867 109.91 44.2867Z" fill="#3D3D3D"/>
<path d="M120.879 44.2867H122.398V46.6043H120.629C119.693 46.6043 118.923 46.3553 118.321 45.8573C117.706 46.3553 116.93 46.6043 115.994 46.6043H110.494V44.2867H115.744C116.641 44.2867 117.09 43.8462 117.09 42.9651V42.8502C117.09 42.1478 116.827 41.586 116.302 41.1646C115.776 40.7304 115.084 40.5134 114.225 40.5134C113.571 40.5134 112.885 40.6411 112.167 40.8964V38.5788L116.071 34.25H118.513L115.013 38.1574C116.026 38.2596 116.885 38.5597 117.59 39.0577C118.872 39.926 119.513 41.1838 119.513 42.831V42.9076C119.513 43.4056 119.616 43.7632 119.821 43.9802C120.039 44.1845 120.391 44.2867 120.879 44.2867Z" fill="#3D3D3D"/>
<path d="M121.236 46.6043V44.2867H123.275C123.762 44.2867 124.108 44.1845 124.313 43.9802C124.531 43.7632 124.64 43.4056 124.64 42.9076V40.3793L127.063 39.1151V42.9076C127.063 43.4056 127.165 43.7632 127.371 43.9802C127.576 44.1845 127.922 44.2867 128.409 44.2867H129.717C130.204 44.2867 130.55 44.1845 130.755 43.9802C130.96 43.7632 131.063 43.4056 131.063 42.9076V39.8813L133.486 38.598V42.9076C133.486 43.4056 133.588 43.7632 133.793 43.9802C134.011 44.1845 134.364 44.2867 134.851 44.2867H136.159C136.646 44.2867 136.992 44.1845 137.197 43.9802C137.402 43.7632 137.505 43.4056 137.505 42.9076V39.3641L139.928 38.1V43.0225C139.928 44.159 139.582 45.0529 138.89 45.7041C138.287 46.2787 137.492 46.5788 136.505 46.6043H134.601C133.652 46.6043 132.877 46.3234 132.274 45.7616C131.723 46.3106 130.992 46.5916 130.082 46.6043H128.178C127.23 46.6043 126.454 46.3234 125.851 45.7616C125.249 46.3234 124.473 46.6043 123.525 46.6043H121.236Z" fill="#3D3D3D"/>
<defs>
<linearGradient id="paint0_linear_325_11120" x1="33.3322" y1="66.4006" x2="33.3322" y2="0" gradientUnits="userSpaceOnUse">
<stop stop-color="#14B376"/>
<stop offset="1" stop-color="#126983"/>
</linearGradient>
<clipPath id="clip0_325_11120">
<rect width="66.665" height="66.4006" fill="white"/>
</clipPath>
</defs>
</svg>
