<svg width="117" height="49" viewBox="0 0 117 49" fill="none" xmlns="http://www.w3.org/2000/svg">
<g clip-path="url(#clip0_1614_72355)">
<path d="M35.0744 0.0585938H13.6743C6.12221 0.0585938 0 6.12335 0 13.6046V34.8039C0 42.2852 6.12221 48.3499 13.6743 48.3499H35.0744C42.6266 48.3499 48.7488 42.2852 48.7488 34.8039V13.6046C48.7488 6.12335 42.6266 0.0585938 35.0744 0.0585938Z" fill="url(#paint0_linear_1614_72355)"/>
<path fill-rule="evenodd" clip-rule="evenodd" d="M18.9121 17.3771C21.6714 13.3681 27.9677 13.4816 30.5268 17.7175L33.8597 23.2347C33.8597 23.2347 33.8597 23.2347 33.8597 23.2347C36.4892 27.5867 33.2015 33.0267 27.9425 33.0267H21.2762C16.0167 33.0267 12.7295 27.5868 15.359 23.2347C15.359 23.2347 15.359 23.2347 15.359 23.2347L18.8976 17.3771H18.9121ZM29.2925 18.3983C27.2115 14.9537 22.0077 14.9537 19.9266 18.3983L19.721 18.7388H19.7205L16.5933 23.9155C14.5123 27.3597 17.1137 31.665 21.2762 31.665H27.9425C32.1046 31.665 34.7065 27.3597 32.6255 23.9155L29.2925 18.3983C29.2925 18.3983 29.2925 18.3983 29.2925 18.3983Z" fill="white"/>
<path fill-rule="evenodd" clip-rule="evenodd" d="M35.1139 11.9662C35.1139 11.9662 35.1139 11.9662 35.1139 11.9662L41.7185 23.1453C46.2834 30.872 40.4701 40.4549 31.2173 40.4549H18.0085C8.75566 40.4549 2.94246 30.8725 7.50723 23.1453L13.1103 13.6616L14.1114 11.9662C18.737 4.13625 30.4883 4.13627 35.1139 11.9662ZM16.2145 13.0091C19.9655 6.7903 29.3526 6.81605 33.0569 13.0864L39.6615 24.2655C43.3322 30.4787 38.6576 38.1844 31.2173 38.1844H18.0085C10.5682 38.1844 5.89364 30.4792 9.56426 24.2655C9.56425 24.2655 9.56427 24.2655 9.56426 24.2655L16.2145 13.0091Z" fill="white"/>
<path d="M40.1444 23.6699L32.2181 19.2074C31.8601 19.0059 31.853 18.4897 32.2053 18.2782L40.006 13.5999C40.3588 13.3884 40.8065 13.6403 40.8121 14.0534L40.9378 23.1941C40.9434 23.6071 40.5028 23.8714 40.1444 23.6699Z" fill="white"/>
<path d="M27.3671 44.1032L19.4407 39.8436C19.0828 39.6512 19.0757 39.1585 19.428 38.9566L27.2287 34.491C27.5815 34.2891 28.0291 34.5295 28.0348 34.9238L28.1604 43.649C28.1661 44.0433 27.7255 44.2956 27.3671 44.1032Z" fill="white"/>
<path d="M12.2225 26.455L4.2962 21.9926C3.93825 21.7911 3.93117 21.2748 4.28345 21.0633L12.0842 16.3851C12.4369 16.1735 12.8846 16.4255 12.8903 16.8385L13.0159 25.9792C13.0215 26.3923 12.581 26.6566 12.2225 26.455Z" fill="white"/>
<path d="M20.5903 27.3479L21.3293 26.4564C21.9928 27.1497 23.0791 27.8007 24.4971 27.8007C26.2923 27.8007 26.8654 26.8951 26.8654 26.1733C26.8654 23.7391 20.9066 25.0835 20.9066 21.7156C20.9066 20.1589 22.3851 19.0977 24.3612 19.0977C25.9001 19.0977 27.0917 19.579 27.9361 20.4139L27.1817 21.2773C26.4272 20.4987 25.3715 20.1453 24.2703 20.1453C23.0636 20.1453 22.2037 20.7537 22.2037 21.6452C22.2037 23.7681 28.1625 22.5508 28.1625 26.0748C28.1625 27.4477 27.1667 28.8488 24.4516 28.8488C22.7018 28.8488 21.4197 28.2263 20.5898 27.3488L20.5903 27.3479Z" fill="white"/>
</g>
<path d="M58.8483 21.5977C58.3046 21.5977 57.782 21.5141 57.2804 21.347C56.7836 21.1751 56.3476 20.9314 55.9726 20.6156C55.5976 20.2952 55.3281 19.9121 55.1641 19.4664L56.7742 18.8813C56.8398 19.067 56.9734 19.2365 57.1749 19.3898C57.3765 19.543 57.6226 19.666 57.9132 19.7589C58.2038 19.8518 58.5155 19.8982 58.8483 19.8982C59.1905 19.8982 59.5093 19.8471 59.8046 19.745C60.1046 19.6382 60.346 19.4919 60.5288 19.3062C60.7116 19.1158 60.803 18.8952 60.803 18.6445C60.803 18.3891 60.7069 18.1802 60.5147 18.0176C60.3225 17.8505 60.0764 17.7181 59.7764 17.6206C59.4765 17.5231 59.1671 17.4488 58.8483 17.3977C58.1499 17.2909 57.5242 17.1261 56.971 16.9032C56.4179 16.6803 55.9797 16.3716 55.6562 15.9769C55.3375 15.5822 55.1781 15.0714 55.1781 14.4445C55.1781 13.8548 55.3492 13.3394 55.6914 12.8983C56.0336 12.4572 56.4836 12.1136 57.0414 11.8675C57.5992 11.6214 58.2015 11.4983 58.8483 11.4983C59.3874 11.4983 59.9077 11.5819 60.4092 11.749C60.9108 11.9162 61.3491 12.16 61.7241 12.4804C62.1037 12.8008 62.3756 13.1862 62.5397 13.6366L60.9225 14.2147C60.8569 14.029 60.7233 13.8595 60.5217 13.7062C60.3202 13.553 60.0741 13.4323 59.7835 13.3441C59.4929 13.2512 59.1812 13.2048 58.8483 13.2048C58.5155 13.2001 58.1991 13.2535 57.8992 13.365C57.6038 13.4717 57.3624 13.618 57.1749 13.8038C56.9875 13.9895 56.8937 14.2031 56.8937 14.4445C56.8937 14.7556 56.9804 14.9901 57.1539 15.148C57.332 15.3059 57.5687 15.422 57.864 15.4963C58.1593 15.5659 58.4874 15.6309 58.8483 15.6913C59.5046 15.7934 60.1116 15.9653 60.6694 16.2067C61.2272 16.4482 61.6748 16.7709 62.0123 17.1749C62.3498 17.5742 62.5186 18.0641 62.5186 18.6445C62.5186 19.2342 62.3498 19.7519 62.0123 20.1977C61.6748 20.6388 61.2272 20.9824 60.6694 21.2285C60.1116 21.4746 59.5046 21.5977 58.8483 21.5977Z" fill="white"/>
<path d="M68.4711 21.5977C67.8055 21.5977 67.1798 21.4677 66.5938 21.2076C66.0079 20.943 65.4923 20.5785 65.047 20.1141C64.6064 19.6498 64.2595 19.1135 64.0064 18.5052C63.758 17.8923 63.6338 17.2375 63.6338 16.541C63.6338 15.8399 63.758 15.1852 64.0064 14.5769C64.2595 13.9639 64.6064 13.4276 65.047 12.9679C65.4923 12.5036 66.0079 12.1414 66.5938 11.8814C67.1798 11.6167 67.8055 11.4844 68.4711 11.4844C69.268 11.4844 70.0016 11.6678 70.6719 12.0346C71.3422 12.3968 71.8976 12.882 72.3382 13.4903L70.8055 14.3052C70.5289 13.9663 70.1844 13.6946 69.7719 13.4903C69.3641 13.286 68.9305 13.1839 68.4711 13.1839C68.0399 13.1839 67.6344 13.2721 67.2548 13.4485C66.8751 13.6203 66.5423 13.8618 66.2564 14.1729C65.9704 14.4794 65.7478 14.8369 65.5884 15.2455C65.429 15.6495 65.3493 16.0813 65.3493 16.541C65.3493 17.0054 65.429 17.4395 65.5884 17.8435C65.7525 18.2475 65.9775 18.605 66.2634 18.9161C66.5493 19.2226 66.8798 19.4641 67.2548 19.6405C67.6344 19.8123 68.0399 19.8982 68.4711 19.8982C68.9399 19.8982 69.3758 19.7961 69.7789 19.5917C70.1867 19.3828 70.5289 19.1088 70.8055 18.7699L72.3382 19.5917C71.8976 20.1954 71.3422 20.6806 70.6719 21.0475C70.0016 21.4143 69.268 21.5977 68.4711 21.5977Z" fill="white"/>
<path d="M73.6651 21.4166V11.6655H77.4408C77.9752 11.6655 78.458 11.7978 78.8892 12.0625C79.3205 12.3272 79.6626 12.6824 79.9158 13.1281C80.1689 13.5693 80.2954 14.0591 80.2954 14.5978C80.2954 15.0389 80.2134 15.4452 80.0493 15.8167C79.89 16.1835 79.665 16.5016 79.3744 16.7709C79.0884 17.0402 78.758 17.2445 78.383 17.3838L80.7384 21.4166H78.7627L76.4846 17.537H75.3807V21.4166H73.6651ZM75.3807 15.8376H77.2439C77.4877 15.8376 77.7103 15.7772 77.9119 15.6565C78.1135 15.5357 78.2752 15.3732 78.397 15.1689C78.5189 14.9646 78.5798 14.7371 78.5798 14.4863C78.5798 14.2309 78.5189 14.0011 78.397 13.7968C78.2752 13.5925 78.1135 13.43 77.9119 13.3092C77.7103 13.1885 77.4877 13.1281 77.2439 13.1281H75.3807V15.8376Z" fill="white"/>
<path d="M85.0991 11.6655H87.0748L90.6536 21.4166H88.8326L88.1998 19.6893H83.9811L83.3483 21.4166H81.5273L85.0991 11.6655ZM84.6069 17.9898H87.567L86.0834 13.9709L84.6069 17.9898Z" fill="white"/>
<path d="M94.8629 11.6655H96.8387L100.417 21.4166H98.5964L97.9636 19.6893H93.745L93.1122 21.4166H91.2912L94.8629 11.6655ZM94.3708 17.9898H97.3308L95.8473 13.9709L94.3708 17.9898Z" fill="white"/>
<path d="M101.597 21.4166V11.6655H105.113C105.647 11.6655 106.13 11.7978 106.561 12.0625C106.997 12.3272 107.342 12.6824 107.595 13.1281C107.848 13.5739 107.974 14.0638 107.974 14.5978C107.974 15.1457 107.843 15.6425 107.581 16.0883C107.323 16.5294 106.976 16.8823 106.54 17.147C106.104 17.407 105.628 17.537 105.113 17.537H103.313V21.4166H101.597ZM103.313 15.8376H104.93C105.174 15.8376 105.396 15.7772 105.598 15.6565C105.799 15.5357 105.959 15.3732 106.076 15.1689C106.198 14.9646 106.259 14.7371 106.259 14.4863C106.259 14.2309 106.198 14.0011 106.076 13.7968C105.959 13.5925 105.799 13.43 105.598 13.3092C105.396 13.1885 105.174 13.1281 104.93 13.1281H103.313V15.8376Z" fill="white"/>
<path d="M114.977 11.6655H117.002L113.62 17.0216V21.4166H111.904V17.0216L108.522 11.6655H110.547L112.762 15.1689L114.977 11.6655Z" fill="white"/>
<path d="M64.1201 33.9537C64.0076 34.8081 63.5201 35.4768 62.6576 35.9597C61.8795 36.3869 60.9092 36.6005 59.7468 36.6005C58.1906 36.6005 57.0187 36.1593 56.2312 35.2771C55.65 34.6177 55.3594 33.8098 55.3594 32.8532C55.3594 32.1196 55.5328 31.4788 55.8797 30.9309L57.5671 30.5826C57.1921 31.2141 57.0046 31.8781 57.0046 32.5746C57.0046 33.3547 57.239 33.9537 57.7078 34.3716C58.1765 34.7988 58.8562 35.0124 59.7468 35.0124C61.1342 35.0124 61.978 34.6595 62.278 33.9537H60.928L61.8139 32.2682H64.1623V33.9537H64.1201ZM58.8046 39.679C58.5234 39.679 58.2984 39.5908 58.1296 39.4144C57.9609 39.2472 57.8765 39.0243 57.8765 38.7457C57.8765 38.4764 57.9609 38.2582 58.1296 38.091C58.2984 37.9238 58.5234 37.8402 58.8046 37.8402C59.0858 37.8402 59.3062 37.9192 59.4655 38.0771C59.6343 38.2442 59.7186 38.4671 59.7186 38.7457C59.7186 39.3679 59.414 39.679 58.8046 39.679ZM60.9702 39.679C60.6889 39.679 60.4639 39.5955 60.2952 39.4283C60.1264 39.2611 60.0421 39.0336 60.0421 38.7457C60.0421 38.1421 60.3514 37.8402 60.9702 37.8402C61.2514 37.8402 61.4717 37.9192 61.6311 38.0771C61.7998 38.2442 61.8842 38.4671 61.8842 38.7457C61.8842 39.3679 61.5795 39.679 60.9702 39.679Z" fill="white"/>
<path d="M63.4424 33.9537V32.2682H65.9173V33.9537H63.4424Z" fill="white"/>
<path d="M65.0765 33.9537V32.2682H66.3421C66.6984 32.2682 66.9515 32.1939 67.1015 32.0453C67.2515 31.8874 67.3265 31.6274 67.3265 31.2652V28.6881L69.0983 27.7687V31.3488C69.0983 32.1939 68.8358 32.8532 68.3108 33.3269C67.8515 33.7448 67.2515 33.9537 66.5109 33.9537H65.0765ZM68.0577 37.0602C67.7765 37.0602 67.5515 36.9766 67.3827 36.8094C67.214 36.6423 67.1296 36.4147 67.1296 36.1268C67.1296 35.8575 67.214 35.6393 67.3827 35.4721C67.5515 35.305 67.7765 35.2214 68.0577 35.2214C68.339 35.2214 68.5593 35.3003 68.7186 35.4582C68.8874 35.6253 68.9718 35.8482 68.9718 36.1268C68.9718 36.749 68.6671 37.0602 68.0577 37.0602Z" fill="white"/>
<path d="M71.6253 33.9537V25.9021L73.3972 24.9688V33.9537H71.6253Z" fill="white"/>
<path d="M80.3733 32.2682H81.6389V33.9537H80.2046C79.8858 33.9537 79.5905 33.9119 79.3186 33.8284C79.1968 34.7199 78.8358 35.4257 78.2359 35.9457C77.6921 36.4101 77.0406 36.6423 76.2812 36.6423C75.6906 36.6423 75.1141 36.4937 74.5516 36.1965V34.6642C75.0391 34.9335 75.5172 35.0681 75.9859 35.0681C76.5015 35.0681 76.8999 34.901 77.1812 34.5667C77.4718 34.2416 77.6171 33.7866 77.6171 33.2015V28.6881L78.7702 28.0891L79.3749 27.7687V27.7826L79.389 27.7687V31.2652C79.389 31.6274 79.4639 31.8874 79.6139 32.0453C79.7639 32.1939 80.0171 32.2682 80.3733 32.2682Z" fill="white"/>
<path d="M88.3939 32.2682H89.5048V33.9537H88.2111C87.5267 33.9537 86.9642 33.7726 86.5236 33.4104C86.0736 33.7726 85.5065 33.9537 84.8221 33.9537H80.8003V32.2682H84.6393C85.2955 32.2682 85.6236 31.9478 85.6236 31.307V31.2234C85.6236 30.7126 85.4315 30.304 85.0471 29.9975C84.6627 29.6818 84.1565 29.5239 83.5284 29.5239C83.0503 29.5239 82.5487 29.6168 82.0237 29.8025V28.117L84.8784 24.9688H86.6642L84.1049 27.8105C84.8455 27.8848 85.4736 28.103 85.9893 28.4652C86.9267 29.0967 87.3955 30.0115 87.3955 31.2095V31.2652C87.3955 31.6274 87.4705 31.8874 87.6205 32.0453C87.7798 32.1939 88.0376 32.2682 88.3939 32.2682Z" fill="white"/>
<path d="M88.6554 33.9537V32.2682H90.1459C90.5022 32.2682 90.7553 32.1939 90.9053 32.0453C91.0647 31.8874 91.1444 31.6274 91.1444 31.2652V29.4264L92.9162 28.507V31.2652C92.9162 31.6274 92.9912 31.8874 93.1412 32.0453C93.2912 32.1939 93.5443 32.2682 93.9005 32.2682H94.8568C95.213 32.2682 95.4661 32.1939 95.6161 32.0453C95.7661 31.8874 95.8411 31.6274 95.8411 31.2652V29.0642L97.6129 28.1309V31.2652C97.6129 31.6274 97.6879 31.8874 97.8379 32.0453C97.9973 32.1939 98.2551 32.2682 98.6114 32.2682H99.5676C99.9238 32.2682 100.177 32.1939 100.327 32.0453C100.477 31.8874 100.552 31.6274 100.552 31.2652V28.6881L102.324 27.7687V31.3488C102.324 32.1753 102.071 32.8254 101.564 33.299C101.124 33.7169 100.543 33.9351 99.8207 33.9537H98.4285C97.7348 33.9537 97.1676 33.7494 96.727 33.3408C96.3239 33.7401 95.7896 33.9444 95.1239 33.9537H93.7318C93.0381 33.9537 92.4709 33.7494 92.0303 33.3408C91.5897 33.7494 91.0225 33.9537 90.3288 33.9537H88.6554Z" fill="white"/>
<defs>
<linearGradient id="paint0_linear_1614_72355" x1="24.3741" y1="48.3499" x2="24.3741" y2="0.0585938" gradientUnits="userSpaceOnUse">
<stop stop-color="#14B376"/>
<stop offset="1" stop-color="#126983"/>
</linearGradient>
<clipPath id="clip0_1614_72355">
<rect width="48.7488" height="48.2913" fill="white" transform="translate(0 0.0585938)"/>
</clipPath>
</defs>
</svg>
