<svg width="24" height="25" viewBox="0 0 24 25" fill="none" xmlns="http://www.w3.org/2000/svg">
<path d="M21.9684 6.5761C21.8801 6.23048 21.7109 5.91083 21.4747 5.6435C21.2385 5.37618 20.9421 5.16884 20.61 5.0386C17.3962 3.79735 12.2812 3.8086 12 3.8086C11.7188 3.8086 6.60375 3.79735 3.39 5.0386C3.0579 5.16884 2.76153 5.37618 2.52534 5.6435C2.28915 5.91083 2.1199 6.23048 2.03156 6.5761C1.78875 7.51172 1.5 9.22172 1.5 12.0586C1.5 14.8955 1.78875 16.6055 2.03156 17.5411C2.11977 17.8869 2.28895 18.2067 2.52515 18.4742C2.76136 18.7417 3.0578 18.9492 3.39 19.0795C6.46875 20.2673 11.2875 20.3086 11.9381 20.3086H12.0619C12.7125 20.3086 17.5341 20.2673 20.61 19.0795C20.9422 18.9492 21.2386 18.7417 21.4748 18.4742C21.711 18.2067 21.8802 17.8869 21.9684 17.5411C22.2113 16.6036 22.5 14.8955 22.5 12.0586C22.5 9.22172 22.2113 7.51172 21.9684 6.5761ZM15.2081 12.3708L10.7081 15.3708C10.6516 15.4085 10.586 15.4301 10.5181 15.4334C10.4503 15.4367 10.3829 15.4215 10.323 15.3894C10.2631 15.3574 10.2131 15.3097 10.1782 15.2514C10.1434 15.1931 10.125 15.1265 10.125 15.0586V9.0586C10.125 8.99069 10.1434 8.92405 10.1782 8.86578C10.2131 8.80751 10.2631 8.7598 10.323 8.72775C10.3829 8.6957 10.4503 8.68051 10.5181 8.68379C10.586 8.68708 10.6516 8.70872 10.7081 8.74641L15.2081 11.7464C15.2596 11.7806 15.3017 11.8271 15.3309 11.8815C15.3601 11.936 15.3754 11.9968 15.3754 12.0586C15.3754 12.1204 15.3601 12.1812 15.3309 12.2357C15.3017 12.2901 15.2596 12.3366 15.2081 12.3708Z" fill="white"/>
</svg>
